<?xml version="1.0" encoding="UTF-8" standalone="no"?>
<svg
   xmlns:dc="http://purl.org/dc/elements/1.1/"
   xmlns:cc="http://creativecommons.org/ns#"
   xmlns:rdf="http://www.w3.org/1999/02/22-rdf-syntax-ns#"
   xmlns:svg="http://www.w3.org/2000/svg"
   xmlns="http://www.w3.org/2000/svg"
   height="104.0002"
   width="103.99994"
   version="1.1"
   id="svg2"
   viewBox="45.95 123.95 103.99994 104.00019">
  <metadata
     id="metadata23">
    <rdf:RDF>
      <cc:Work
         rdf:about="">
        <dc:format>image/svg+xml</dc:format>
        <dc:type
           rdf:resource="http://purl.org/dc/dcmitype/StillImage" />
        <dc:title></dc:title>
      </cc:Work>
    </rdf:RDF>
  </metadata>
  <defs
     id="defs21" />
  <g
     id="g4150">
    <g
       transform="matrix(22.981835,0,0,-23.066696,-1005.1781,3082.3538)"
       id="g4"
       style="fill:#ffffff;fill-opacity:1;stroke:#ffff00;stroke-width:0.33640397;stroke-linecap:square;stroke-linejoin:miter;stroke-miterlimit:4;stroke-dasharray:none;stroke-opacity:1">
      <g
         id="BWA2047"
         style="fill:#ffffff;fill-opacity:1;stroke:#ffff00;stroke-width:0.33640397;stroke-linecap:square;stroke-linejoin:miter;stroke-miterlimit:4;stroke-dasharray:none;stroke-opacity:1">
        <path
           d="m 50,126.00041 -0.0081,0.17909 -0.02408,0.17765 -0.03989,0.17478 -0.05538,0.17051 -0.07042,0.16486 -0.0849,0.15789 -0.0987,0.14966"
           id="path7"
           style="fill:#ffffff;fill-opacity:1;stroke:#ffff00;stroke-width:0.33640397;stroke-linecap:square;stroke-linejoin:miter;stroke-miterlimit:4;stroke-dasharray:none;stroke-opacity:1" />
        <path
           d="m 49.001145,127.73139 -0.159394,0.0828 -0.166185,0.0682 -0.171635,0.053 -0.1757,0.0374 -0.178349,0.0215 -0.179557,0.005 -0.179318,-0.0107"
           id="path9"
           style="fill:#ffffff;fill-opacity:1;stroke:#ffff00;stroke-width:0.33640397;stroke-linecap:square;stroke-linejoin:miter;stroke-miterlimit:4;stroke-dasharray:none;stroke-opacity:1" />
        <path
           d="m 46.998352,127.7311 -0.150808,-0.0965 -0.141572,-0.10962 -0.131199,-0.12185 -0.119777,-0.13309 -0.107394,-0.14326 -0.09415,-0.1523 -0.08015,-0.16011"
           id="path11"
           style="fill:#ffffff;fill-opacity:1;stroke:#ffff00;stroke-width:0.33640397;stroke-linecap:square;stroke-linejoin:miter;stroke-miterlimit:4;stroke-dasharray:none;stroke-opacity:1" />
        <path
           d="m 46,125.99959 0.0081,-0.17909 0.02408,-0.17765 0.03989,-0.17478 0.05538,-0.17051 0.07042,-0.16486 0.0849,-0.15789 0.0987,-0.14966"
           id="path13"
           style="fill:#ffffff;fill-opacity:1;stroke:#ffff00;stroke-width:0.33640397;stroke-linecap:square;stroke-linejoin:miter;stroke-miterlimit:4;stroke-dasharray:none;stroke-opacity:1" />
        <path
           d="m 46.998855,124.26861 0.159394,-0.0828 0.166185,-0.0682 0.171635,-0.053 0.1757,-0.0374 0.178349,-0.0215 0.179557,-0.005 0.179318,0.0107"
           id="path15"
           style="fill:#ffffff;fill-opacity:1;stroke:#ffff00;stroke-width:0.33640397;stroke-linecap:square;stroke-linejoin:miter;stroke-miterlimit:4;stroke-dasharray:none;stroke-opacity:1" />
        <path
           d="m 49.001648,124.2689 0.150808,0.0965 0.141572,0.10962 0.131199,0.12185 0.119777,0.13309 0.107394,0.14326 0.09415,0.1523 0.08015,0.16011"
           id="path17"
           style="fill:#ffffff;fill-opacity:1;stroke:#ffff00;stroke-width:0.33640397;stroke-linecap:square;stroke-linejoin:miter;stroke-miterlimit:4;stroke-dasharray:none;stroke-opacity:1" />
      </g>
    </g>
  </g>
</svg>
