<?xml version="1.0" encoding="UTF-8" standalone="no"?>
<svg
   xmlns:dc="http://purl.org/dc/elements/1.1/"
   xmlns:cc="http://creativecommons.org/ns#"
   xmlns:rdf="http://www.w3.org/1999/02/22-rdf-syntax-ns#"
   xmlns:svg="http://www.w3.org/2000/svg"
   xmlns="http://www.w3.org/2000/svg"
   height="107.01315"
   width="107.01293"
   version="1.1"
   id="svg2"
   viewBox="33.95 123.95 107.01293 107.01315">
  <metadata
     id="metadata13">
    <rdf:RDF>
      <cc:Work
         rdf:about="">
        <dc:format>image/svg+xml</dc:format>
        <dc:type
           rdf:resource="http://purl.org/dc/dcmitype/StillImage" />
        <dc:title></dc:title>
      </cc:Work>
    </rdf:RDF>
  </metadata>
  <defs
     id="defs11" />
  <g
     id="g4144">
    <path
       d="m 87.456485,129.95394 4.14011,0.19001 4.10861,0.54153 4.04586,0.8978 3.952275,1.24695 3.82863,1.58658 3.67583,1.91436 3.49509,2.2255 3.2877,2.52263 3.05535,2.7998 2.79968,3.05514 2.52275,3.28789 2.22668,3.49501 1.91364,3.67576 1.58588,3.82871 1.24624,3.95222 0.89685,4.0458 0.54081,4.10874 0.18065,4.12822 -0.18051,4.14009 -0.54082,4.10875 -0.89685,4.0458 -1.24622,3.95222 -1.58588,3.82871 -1.91364,3.67575 -2.22669,3.49502 -2.52275,3.28789 -2.79969,3.05513 -3.05535,2.79979 -3.28783,2.52263 -3.49509,2.22669 -3.67583,1.91436 -3.82863,1.58658 -3.952275,1.24695 -4.04586,0.8978 -4.10861,0.54153 -4.14011,0.17694 -4.14012,-0.19001 -4.10863,-0.54153 -4.04584,-0.8978 -3.95227,-1.24694 -3.82865,-1.5866 -3.67583,-1.91434 -3.49506,-2.22551 -3.28773,-2.52263 -3.05534,-2.79979 -2.79971,-3.05513 -2.52273,-3.28789 -2.22669,-3.49502 -1.91364,-3.67575 -1.58588,-3.82871 -1.24624,-3.95222 -0.89684,-4.0458 -0.54083,-4.10874 -0.18064,-4.12822 0.18051,-4.14009 0.54081,-4.10875 0.89686,-4.0458 1.24622,-3.95222 1.58588,-3.82871 1.91364,-3.67575 2.22669,-3.49501 2.52275,-3.2879 2.79969,-3.05513 3.05534,-2.79981 3.28773,-2.52263 3.49508,-2.22549 3.67583,-1.91436 3.82863,-1.58659 3.95227,-1.24694 4.04586,-0.89781 4.10861,-0.54153 4.14027,-0.17813 z"
       id="path7"
       style="fill:#ffffff;fill-opacity:1;stroke:#7f00ff;stroke-width:8;stroke-miterlimit:4;stroke-dasharray:none;stroke-opacity:1" />
    <flowRoot
       xml:space="preserve"
       id="flowRoot4136"
       style="font-style:normal;font-weight:normal;font-size:40px;line-height:125%;font-family:sans-serif;letter-spacing:0px;word-spacing:0px;fill:#7f00ff;fill-opacity:1;stroke:#7f00ff;stroke-width:1px;stroke-linecap:butt;stroke-linejoin:miter;stroke-opacity:1"
       transform="matrix(1.7803889,0,0,1.625213,8.8913923,103.94814)"><flowRegion
         id="flowRegion4138"><rect
           id="rect4140"
           width="45.798"
           height="68.016838"
           x="29.927406"
           y="18.591269"
           style="fill:#7f00ff;fill-opacity:1;stroke:#7f00ff;stroke-opacity:1" /></flowRegion><flowPara
         id="flowPara4142">E</flowPara></flowRoot>  </g>
</svg>
