<?xml version="1.0" encoding="UTF-8" standalone="no"?>
<svg
   xmlns:dc="http://purl.org/dc/elements/1.1/"
   xmlns:cc="http://creativecommons.org/ns#"
   xmlns:rdf="http://www.w3.org/1999/02/22-rdf-syntax-ns#"
   xmlns:svg="http://www.w3.org/2000/svg"
   xmlns="http://www.w3.org/2000/svg"
   xmlns:sodipodi="http://sodipodi.sourceforge.net/DTD/sodipodi-0.dtd"
   xmlns:inkscape="http://www.inkscape.org/namespaces/inkscape"
   version="1.1"
   width="100"
   viewBox="141.95 21.95 100.00049 104"
   height="104"
   id="svg2"
   inkscape:version="0.91 r13725"
   sodipodi:docname="Vanne_Papillon_AE-AE_vert.svg">
  <sodipodi:namedview
     pagecolor="#ffffff"
     bordercolor="#666666"
     borderopacity="1"
     objecttolerance="10"
     gridtolerance="10"
     guidetolerance="10"
     inkscape:pageopacity="0"
     inkscape:pageshadow="2"
     inkscape:window-width="693"
     inkscape:window-height="480"
     id="namedview13"
     showgrid="false"
     inkscape:zoom="2.2692308"
     inkscape:cx="50"
     inkscape:cy="57.288136"
     inkscape:window-x="0"
     inkscape:window-y="0"
     inkscape:window-maximized="0"
     inkscape:current-layer="svg2" />
  <defs
     id="defs13" />
  <metadata
     id="metadata21">
    <rdf:RDF>
      <cc:Work
         rdf:about="">
        <dc:format>image/svg+xml</dc:format>
        <dc:type
           rdf:resource="http://purl.org/dc/dcmitype/StillImage" />
        <dc:title></dc:title>
      </cc:Work>
    </rdf:RDF>
  </metadata>
  <g
     id="g4198"
     transform="translate(-0.44068012,21.593326)">
    <path
       style="fill:#007f1f;fill-opacity:1;stroke:#007f1f;stroke-width:4.16385889;stroke-opacity:1"
       d="m 211.85437,52.66756 1.63612,1.785463 1.47415,1.921204 1.24915,2.040291 1.1187,2.147995 0.92715,2.23738 0.72867,2.309554 0.52464,2.36424 0.31645,2.40088 0.1388,2.415038 -0.11103,2.419341 -0.31646,2.400881 -0.52464,2.364236 -0.72867,2.309556 -0.92716,2.237379 -1.11036,2.147999 -1.30051,2.042369 -1.47415,1.921211 -1.63612,1.785458 -1.78532,1.636126 -1.92134,1.474286 -2.04237,1.301199 -2.148,1.118278 -2.23738,0.926726 -2.30955,0.728258 -2.36424,0.524089 -2.40102,0.31604 -2.35952,0.111043 -2.41935,-0.105489 -2.40101,-0.31604 -2.36424,-0.524088 -2.30956,-0.728258 -2.23737,-0.926736 -2.148,-1.118278 -2.04237,-1.301209 -1.92135,-1.474276 -1.78532,-1.636117 -1.63613,-1.785458 -1.47414,-1.921211 -1.30051,-2.042378 -1.11869,-2.14799 -0.92715,-2.237388 -0.72867,-2.309546 -0.52465,-2.36424 -0.31645,-2.40088 -0.1388,-2.415038 0.11104,-2.419341 0.31646,-2.400881 0.52463,-2.36424 0.72867,-2.309553 0.92716,-2.237379 1.11869,-2.147997 1.30051,-2.042372 1.47415,-1.921205 1.63612,-1.785462 1.78532,-1.636119 1.92135,-1.474283 2.04237,-1.301206 2.14799,-1.118274 2.23738,-0.926736 2.30956,-0.728258 2.36424,-0.524091 2.40101,-0.316037 2.35953,-0.111037 2.41934,0.105485 2.40102,0.316035 2.36423,0.524092 2.30956,0.728259 2.23738,0.926736 2.148,1.118274 2.04237,1.301206 1.92135,1.474283 1.78532,1.636119 z"
       id="path7"
       inkscape:connector-curvature="0" />
    <path
       style="fill:#007f1f;fill-opacity:1;stroke:#007f1f;stroke-width:4.16385889;stroke-opacity:1"
       d="m 220.0433,72.293214 -0.11105,-2.419341 -0.31645,-2.400881 -0.52464,-2.364239 -0.72868,-2.309553 -0.92714,-2.23738 -1.11037,-2.165207 -1.30052,-2.042373 -1.47414,-1.921203 -1.63612,-1.785464 -1.78532,-1.636118 -1.92134,-1.474284 -2.04238,-1.301206 -2.14799,-1.118273 -2.23738,-0.926736 -2.30956,-0.728259 -2.36423,-0.524092 -2.40103,-0.316036 -2.35952,-0.111036 -2.41934,0.105484 -2.40101,0.316037 -2.36424,0.52409 -2.30956,0.72826 -2.23739,0.926736 -2.08191,1.124242 -2.08194,1.304675 -1.94313,1.471231 -1.66554,1.637783 -1.66555,1.776581 -1.52675,1.929254 -1.24915,2.04029 -1.11869,2.147997 -0.92715,2.23738 -0.72868,2.309553 -0.52465,2.36424 -0.31645,2.400881 -0.13879,2.415037 0.11103,2.419341 0.31645,2.400881 0.52466,2.364239 0.72867,2.309556 0.92715,2.237378 1.11037,2.151321 1.3005,2.042378 1.47415,1.921201 1.63612,1.785468 1.78532,1.636116 1.92133,1.474286 2.04238,1.30121 2.148,1.118268 2.23738,0.926735 2.30955,0.728258 2.36423,0.524089 2.40104,0.31604 2.35951,0.111041 2.41934,-0.105487 2.40102,-0.31604 2.36424,-0.524088 2.30956,-0.728258 2.23738,-0.926736 2.14799,-1.118268 2.04237,-1.301209 1.92135,-1.474286 1.78532,-1.636117 1.63612,-1.785467 1.47414,-1.921211 1.30051,-2.042369 1.11869,-2.14799 0.92716,-2.237378 0.72867,-2.309556 0.52465,-2.364242 0.31646,-2.40088 0.13879,-2.415038 z"
       id="path9"
       inkscape:connector-curvature="0" />
    <path
       style="fill:#007f1f;fill-opacity:1;stroke:#007f1f;stroke-width:4.16385889;stroke-opacity:1"
       d="m 207.01882,20.321498 -0.0555,-1.225423 -0.15962,-1.216125 -0.2651,-1.197526 -0.36919,-1.169766 -0.46912,-1.133264 -0.5663,-1.088016 -0.65928,-1.034441 -0.74672,-0.973095 -0.82861,-0.90425 -0.90355,-0.828608 -0.97296,-0.7467195 -1.03401,-0.6589999 -1.08816,-0.5662842 -1.13257,-0.4694061 -1.17005,-0.3687792 -1.1978,-0.2655141 -1.21585,-0.1600312 -1.22555,-0.054123 -1.22558,0.054123 -1.21584,0.1600312 -1.19779,0.2655141 -1.17006,0.3687792 -1.13257,0.4694061 -1.08815,0.5662842 -1.03402,0.6589999 -0.97297,0.7467195 -0.90354,0.828608 -0.82861,0.90425 -0.74673,0.973095 -0.65927,1.034441 -0.56629,1.088016 -0.46912,1.133264 -0.3692,1.169766 -0.2651,1.197526 -0.15961,1.216125 -0.0556,1.225423 0.0556,1.225423 0.15961,1.216125 0.2651,1.197526 0.3692,1.169766 0.46912,1.133126 0.56629,1.088015 0.65927,1.034441 0.74673,0.973094 0.82861,0.90439 0.90354,0.828608 0.97297,0.74672 1.03402,0.658999 1.08815,0.566424 1.13257,0.469406 1.17006,0.368778 1.19779,0.265515 1.21584,0.160031 1.22558,0.05412 1.22555,-0.05412 1.21585,-0.160031 1.1978,-0.265515 1.17005,-0.368778 1.13257,-0.469406 1.08816,-0.566424 1.03401,-0.658999 0.97296,-0.74672 0.90355,-0.828608 0.82861,-0.90439 0.74672,-0.973094 0.65928,-1.034441 0.5663,-1.088015 0.46912,-1.133126 0.36919,-1.169766 0.2651,-1.197526 0.15962,-1.216125 0.0555,-1.225423 z"
       id="path11"
       inkscape:connector-curvature="0" />
    <path
       style="fill:#007f1f;fill-opacity:1;stroke:#007f1f;stroke-width:4.16385889;stroke-opacity:1"
       d="m 192.14099,6.2615361 1.22556,0.054123 1.21585,0.1600302 1.1978,0.265516 1.17004,0.3687782 1.13258,0.4694062 1.08815,0.5662851 1.03403,0.6589999 0.97295,0.7467186 0.90356,0.8286077 0.82861,0.904252 0.74672,0.973093 0.65927,1.034442 0.56628,1.088016 0.46914,1.133263 0.36919,1.169767 0.2651,1.197526 0.15962,1.216124 0.0555,1.225423 -0.0555,1.225424 -0.15962,1.216124 -0.2651,1.197526 -0.36919,1.169766 -0.46914,1.133126 -0.56628,1.088016 -0.65927,1.034441 -0.74672,0.973094 -0.82861,0.90439 -0.90356,0.828608 -0.97295,0.746718 -1.03403,0.659001 -1.08815,0.566423 -1.13258,0.469405 -1.17004,0.368781 -1.1978,0.265514 -1.21585,0.160031 -1.22556,0.05413 -1.22556,-0.05413 -1.21586,-0.160031 -1.1978,-0.265514 -1.17004,-0.368781 -1.13257,-0.469405 -1.08815,-0.566423 -1.03404,-0.659001 -0.97294,-0.746718 -0.90357,-0.828608 -0.82861,-0.90439 -0.74671,-0.973094 -0.65928,-1.034441 -0.56628,-1.088016 -0.46913,-1.133126 -0.3692,-1.169766 -0.26509,-1.197526 -0.15962,-1.216124 -0.0555,-1.225424 0.0555,-1.225423 0.15962,-1.216124 0.26509,-1.197526 0.3692,-1.169767 0.46913,-1.133263 0.56628,-1.088016 0.65928,-1.034442 0.74671,-0.973093 0.82861,-0.904252 0.90357,-0.8286077 0.97294,-0.7467186 1.03404,-0.6589999 1.08815,-0.5662851 1.13257,-0.4694062 1.17004,-0.3687782 1.1978,-0.265516 1.21586,-0.1600302 1.22556,-0.054123 z"
       id="path13"
       inkscape:connector-curvature="0" />
    <rect
       style="fill:#007f1f;fill-opacity:1;stroke:#007f1f;stroke-width:2.75831819;stroke-miterlimit:4;stroke-dasharray:none;stroke-opacity:1"
       id="rect4155"
       width="0.85951364"
       height="51.570824"
       x="192.01401"
       y="20.711452" />
    <path
       d="m 142.246,51.023649 a 21.432456,21.400896 0 0 1 18.56106,10.700452 21.432456,21.400896 0 0 1 0,21.400901 21.432456,21.400896 0 0 1 -18.56106,10.700442 l 0,-21.400893 z"
       id="path28268"
       style="opacity:1;fill:#007f1f;fill-opacity:1;stroke:#007f1f;stroke-width:0;stroke-linecap:butt;stroke-linejoin:bevel;stroke-miterlimit:4;stroke-dasharray:none;stroke-opacity:1"
       inkscape:connector-curvature="0" />
    <path
       d="m 242.24648,93.825444 a 21.432456,21.400896 0 0 1 -18.56106,-10.700451 21.432456,21.400896 0 0 1 0,-21.400891 21.432456,21.400896 0 0 1 18.56106,-10.700451 l 0,21.400892 z"
       id="path28268-7"
       style="opacity:1;fill:#007f1f;fill-opacity:1;stroke:#007f1f;stroke-width:0;stroke-linecap:butt;stroke-linejoin:bevel;stroke-miterlimit:4;stroke-dasharray:none;stroke-opacity:1"
       inkscape:connector-curvature="0" />
  </g>
</svg>
