<?xml version="1.0" encoding="UTF-8" standalone="no"?>
<svg
   xmlns:dc="http://purl.org/dc/elements/1.1/"
   xmlns:cc="http://creativecommons.org/ns#"
   xmlns:rdf="http://www.w3.org/1999/02/22-rdf-syntax-ns#"
   xmlns:svg="http://www.w3.org/2000/svg"
   xmlns="http://www.w3.org/2000/svg"
   viewBox="105.95 201.95 104 104"
   id="svg2"
   version="1.1"
   width="104"
   height="104">
  <metadata
     id="metadata17">
    <rdf:RDF>
      <cc:Work
         rdf:about="">
        <dc:format>image/svg+xml</dc:format>
        <dc:type
           rdf:resource="http://purl.org/dc/dcmitype/StillImage" />
        <dc:title></dc:title>
      </cc:Work>
    </rdf:RDF>
  </metadata>
  <defs
     id="defs15" />
  <g
     id="g4140">
    <path
       id="path7"
       d="m 157.95,208.27889 3.98046,0.18269 3.95032,0.52065 3.88981,0.86318 3.79984,1.19886 3.68109,1.52542 3.53403,1.84055 3.36025,2.13969 3.16113,2.42536 2.93733,2.69186 2.69186,2.93734 2.42537,3.16112 2.13968,3.36025 1.84055,3.53403 1.52541,3.68109 1.19887,3.79983 0.86319,3.88981 0.52065,3.95032 0.17126,3.96905 -0.18268,3.98047 -0.52066,3.95032 -0.86317,3.88981 -1.19887,3.79983 -1.52542,3.6811 -1.84054,3.53402 -2.1397,3.36026 -2.42536,3.16112 -2.69185,2.93734 -2.93734,2.69186 -3.16112,2.42536 -3.36026,2.13969 -3.53402,1.84054 -3.6811,1.52542 -3.79983,1.19887 -3.88981,0.86318 -3.95033,0.52065 -3.96904,0.17127 0,0 -3.98047,-0.18268 -3.95032,-0.52066 -3.88981,-0.86318 -3.79983,-1.19887 -3.68109,-1.52541 -3.53404,-1.84055 -3.36024,-2.13969 -3.16113,-2.42537 -2.93734,-2.69184 -2.69185,-2.93734 -2.42536,-3.16113 -2.1397,-3.36025 -1.84054,-3.53403 -1.52542,-3.68109 -1.19887,-3.79984 -0.86318,-3.88981 -0.52065,-3.95032 -0.17127,-3.96905 0.18269,-3.98046 0.52065,-3.95032 0.86319,-3.88981 1.19886,-3.79984 1.52541,-3.68108 1.84055,-3.53404 2.13969,-3.36025 2.42536,-3.16113 2.69186,-2.93734 2.93734,-2.69185 3.16112,-2.42536 3.36025,-2.1397 3.53404,-1.84054 3.68108,-1.52541 3.79984,-1.19887 3.88981,-0.86318 3.95032,-0.52066 3.96905,-0.17126 z"
       style="fill:#ffffff;fill-opacity:1;stroke:#ff0000;stroke-width:8.64922905;stroke-miterlimit:4;stroke-dasharray:none;stroke-opacity:1" />
    <path
       id="path9"
       d="m 157.95,208.27889 3.98046,0.18269 3.95032,0.52065 3.88981,0.86318 3.79984,1.19886 3.68109,1.52542 3.53403,1.84055 3.36025,2.13969 3.16113,2.42536 2.93733,2.69186 2.69186,2.93734 2.42537,3.16112 2.13968,3.36025 1.84055,3.53403 1.52541,3.68109 1.19887,3.79983 0.86319,3.88981 0.52065,3.95032 0.17126,3.96905 -0.18268,3.98047 -0.52066,3.95032 -0.86317,3.88981 -1.19887,3.79983 -1.52542,3.6811 -1.84054,3.53402 -2.1397,3.36026 -2.42536,3.16112 -2.69185,2.93734 -2.93734,2.69186 -3.16112,2.42536 -3.36026,2.13969 -3.53402,1.84054 -3.6811,1.52542 -3.79983,1.19887 -3.88981,0.86318 -3.95033,0.52065 -3.96904,0.17127 -3.98047,-0.18268 -3.95032,-0.52066 -3.88981,-0.86318 -3.79983,-1.19887 -3.68109,-1.52541 -3.53404,-1.84055 -3.36024,-2.13969 -3.16113,-2.42537 -2.93734,-2.69184 -2.69185,-2.93734 -2.42536,-3.16113 -2.1397,-3.36025 -1.84054,-3.53403 -1.52542,-3.68109 -1.19887,-3.79984 -0.86318,-3.88981 -0.52065,-3.95032 -0.17127,-3.96905 0.18269,-3.98046 0.52065,-3.95032 0.86319,-3.88981 1.19886,-3.79984 1.52541,-3.68108 1.84055,-3.53404 2.13969,-3.36025 2.42536,-3.16113 2.69186,-2.93734 2.93734,-2.69185 3.16112,-2.42536 3.36025,-2.1397 3.53404,-1.84054 3.68108,-1.52541 3.79984,-1.19887 3.88981,-0.86318 3.95032,-0.52066 3.96905,-0.17126 z"
       style="fill:#ffffff;fill-opacity:1;stroke:#ff0000;stroke-width:8.64922905;stroke-miterlimit:4;stroke-dasharray:none;stroke-opacity:1" />
    <path
       id="path11"
       d="m 157.95,208.27889 0,91.34221"
       style="fill:#ffffff;fill-opacity:1;stroke:#ff0000;stroke-width:8.64922905;stroke-miterlimit:4;stroke-dasharray:none;stroke-opacity:1" />
  </g>
</svg>
