<?xml version="1.0" encoding="UTF-8" standalone="no"?>
<svg
   xmlns:dc="http://purl.org/dc/elements/1.1/"
   xmlns:cc="http://creativecommons.org/ns#"
   xmlns:rdf="http://www.w3.org/1999/02/22-rdf-syntax-ns#"
   xmlns:svg="http://www.w3.org/2000/svg"
   xmlns="http://www.w3.org/2000/svg"
   xmlns:sodipodi="http://sodipodi.sourceforge.net/DTD/sodipodi-0.dtd"
   xmlns:inkscape="http://www.inkscape.org/namespaces/inkscape"
   id="svg2"
   height="103.99999"
   viewBox="141.95 21.95 100.00049 103.99999"
   width="100"
   version="1.1"
   inkscape:version="0.91 r13725"
   sodipodi:docname="Vanne_Erreur.svg">
  <sodipodi:namedview
     pagecolor="#ffffff"
     bordercolor="#666666"
     borderopacity="1"
     objecttolerance="10"
     gridtolerance="10"
     guidetolerance="10"
     inkscape:pageopacity="0"
     inkscape:pageshadow="2"
     inkscape:window-width="1427"
     inkscape:window-height="813"
     id="namedview12"
     showgrid="false"
     inkscape:zoom="4.5384619"
     inkscape:cx="38.852967"
     inkscape:cy="48.078949"
     inkscape:window-x="0"
     inkscape:window-y="0"
     inkscape:window-maximized="0"
     inkscape:current-layer="svg2" />
  <defs
     id="defs13" />
  <metadata
     id="metadata21">
    <rdf:RDF>
      <cc:Work
         rdf:about="">
        <dc:format>image/svg+xml</dc:format>
        <dc:type
           rdf:resource="http://purl.org/dc/dcmitype/StillImage" />
        <dc:title></dc:title>
      </cc:Work>
    </rdf:RDF>
  </metadata>
  <g
     id="g4290"
     transform="matrix(1.126858,0,0,1.126858,-22.536521,-9.7758808)">
    <rect
       transform="matrix(0.68842027,-0.72531202,0.725312,0.68842029,0,0)"
       y="191.89"
       x="38.320496"
       height="0.88136017"
       width="68.746094"
       id="rect4171"
       style="fill:#000000;fill-opacity:1;stroke:#000000;stroke-width:5.5;stroke-linecap:butt;stroke-linejoin:miter;stroke-miterlimit:4;stroke-dasharray:none;stroke-opacity:1" />
    <rect
       transform="matrix(0.725312,0.6884203,-0.68842027,0.72531202,0,0)"
       y="-74.34771"
       x="159.23615"
       height="0.88136017"
       width="68.746094"
       id="rect4171-0"
       style="fill:#000000;fill-opacity:1;stroke:#000000;stroke-width:5.5;stroke-linecap:butt;stroke-linejoin:miter;stroke-miterlimit:4;stroke-dasharray:none;stroke-opacity:1" />
    <path
       inkscape:connector-curvature="0"
       id="path11"
       d="m 205.2725,77.295472 -0.0604,-1.332794 -0.1736,-1.322681 -0.28833,-1.302452 -0.40154,-1.27226 -0.51023,-1.23256 -0.61591,-1.183347 -0.71704,-1.125078 -0.81215,-1.058356 -0.90121,-0.983481 -0.98272,-0.90121 -1.05821,-0.812146 -1.12462,-0.716741 -1.1835,-0.615902 -1.2318,-0.510536 -1.27257,-0.401091 -1.30275,-0.288779 -1.32238,-0.174053 -1.33294,-0.05887 -1.33295,0.05887 -1.32238,0.174053 -1.30275,0.288779 -1.27257,0.401091 -1.2318,0.510536 -1.1835,0.615902 -1.12462,0.716741 -1.05821,0.812146 -0.98272,0.90121 -0.90121,0.983481 -0.81215,1.058356 -0.71704,1.125078 -0.61591,1.183347 -0.51023,1.23256 -0.40154,1.27226 -0.28833,1.302452 -0.1736,1.322681 -0.0604,1.332794 0.0604,1.332794 0.1736,1.322681 0.28833,1.302452 0.40154,1.27226 0.51023,1.232409 0.61591,1.183347 0.71704,1.125078 0.81215,1.058356 0.90121,0.983632 0.98272,0.90121 1.05821,0.812146 1.12462,0.716741 1.1835,0.616053 1.2318,0.510535 1.27257,0.401091 1.30275,0.288779 1.32238,0.174053 1.33295,0.05887 1.33294,-0.05887 1.32238,-0.174053 1.30275,-0.288779 1.27257,-0.401091 1.2318,-0.510535 1.1835,-0.616053 1.12462,-0.716741 1.05821,-0.812146 0.98272,-0.90121 0.90121,-0.983632 0.81215,-1.058356 0.71704,-1.125078 0.61591,-1.183347 0.51023,-1.232409 0.40154,-1.27226 0.28833,-1.302452 0.1736,-1.322681 0.0604,-1.332794 z"
       style="stroke:#000000;stroke-width:4.5286932" />
    <path
       d="m 190.4248,40.898987 c 0.53028,0.243045 -0.066,0.834717 -0.40395,0.88136 -0.91585,0.126402 -1.45438,-0.906792 -1.35877,-1.689273 0.17104,-1.399674 1.69659,-2.122837 2.97459,-1.836168 1.87553,0.420698 2.80567,2.495121 2.31358,4.259906 -0.65588,2.352181 -3.29651,3.49428 -5.54523,2.790977 -2.82978,-0.885035 -4.18583,-4.099185 -3.26838,-6.83054 1.11115,-3.308038 4.90258,-4.879063 8.11586,-3.745785 3.78674,1.335529 5.57335,5.706419 4.22319,9.401174 -1.55882,4.265741 -6.51056,6.268347 -10.68649,4.700592 -4.74497,-1.781382 -6.96384,-7.314899 -5.178,-11.971807 2.00344,-5.224347 8.1194,-7.659681 13.25712,-5.655401 5.70386,2.225131 8.3558,8.924011 6.13281,14.542441"
       sodipodi:t0="0"
       sodipodi:argument="-18.419794"
       sodipodi:radius="11.634289"
       sodipodi:revolution="3"
       sodipodi:expansion="1"
       sodipodi:cy="40.898987"
       sodipodi:cx="190.4248"
       id="path4200"
       style="fill:none;fill-rule:evenodd;stroke:#000000;stroke-width:1px;stroke-linecap:butt;stroke-linejoin:miter;stroke-opacity:1"
       sodipodi:type="spiral" />
    <rect
       transform="matrix(0.97474171,-0.22333519,0.30850404,0.95122303,0,0)"
       y="144.78857"
       x="110.39028"
       height="0.16817865"
       width="13.057601"
       id="rect4171-2"
       style="fill:#000000;fill-opacity:1;stroke:#000000;stroke-width:1.04707813;stroke-linecap:butt;stroke-linejoin:miter;stroke-miterlimit:4;stroke-dasharray:none;stroke-opacity:1" />
    <rect
       transform="matrix(0.30850404,0.95122303,-0.97474171,0.22333519,0,0)"
       y="-117.23328"
       x="138.55765"
       height="0.16740513"
       width="13.117935"
       id="rect4171-0-2"
       style="fill:#000000;fill-opacity:1;stroke:#000000;stroke-width:1.04707813;stroke-linecap:butt;stroke-linejoin:miter;stroke-miterlimit:4;stroke-dasharray:none;stroke-opacity:1" />
    <rect
       transform="matrix(0.97474171,-0.22333519,0.30850404,0.95122303,0,0)"
       y="96.030952"
       x="186.23569"
       height="0.16817863"
       width="13.057601"
       id="rect4171-2-0"
       style="fill:#000000;fill-opacity:1;stroke:#000000;stroke-width:1.04707813;stroke-linecap:butt;stroke-linejoin:miter;stroke-miterlimit:4;stroke-dasharray:none;stroke-opacity:1" />
    <rect
       transform="matrix(0.30850404,0.95122303,-0.97474171,0.22333519,0,0)"
       y="-193.07869"
       x="89.800026"
       height="0.16740513"
       width="13.117935"
       id="rect4171-0-2-2"
       style="fill:#000000;fill-opacity:1;stroke:#000000;stroke-width:1.04707813;stroke-linecap:butt;stroke-linejoin:miter;stroke-miterlimit:4;stroke-dasharray:none;stroke-opacity:1" />
    <rect
       transform="matrix(0.91621478,-0.4006875,-0.40321974,-0.91510319,0,0)"
       y="-110.8641"
       x="119.43678"
       height="0.16274375"
       width="13.441044"
       id="rect4171-2-0-1"
       style="fill:#000000;fill-opacity:1;stroke:#000000;stroke-width:1.04503453;stroke-linecap:butt;stroke-linejoin:miter;stroke-miterlimit:4;stroke-dasharray:none;stroke-opacity:1" />
    <rect
       transform="matrix(0.31880663,-0.94781978,-0.94693449,-0.32142663,0,0)"
       y="-167.94855"
       x="-3.2029686"
       height="0.17232107"
       width="12.694014"
       id="rect4171-0-2-2-9"
       style="fill:#000000;fill-opacity:1;stroke:#000000;stroke-width:1.04503453;stroke-linecap:butt;stroke-linejoin:miter;stroke-miterlimit:4;stroke-dasharray:none;stroke-opacity:1" />
    <rect
       transform="matrix(0.91621478,-0.4006875,-0.40321974,-0.91510319,0,0)"
       y="-188.32239"
       x="152.77344"
       height="0.16274375"
       width="13.441044"
       id="rect4171-2-0-1-2"
       style="fill:#000000;fill-opacity:1;stroke:#000000;stroke-width:1.04503453;stroke-linecap:butt;stroke-linejoin:miter;stroke-miterlimit:4;stroke-dasharray:none;stroke-opacity:1" />
    <rect
       transform="matrix(0.31880663,-0.94781978,-0.94693449,-0.32142663,0,0)"
       y="-244.84085"
       x="-37.818737"
       height="0.17232107"
       width="12.694014"
       id="rect4171-0-2-2-9-4"
       style="fill:#000000;fill-opacity:1;stroke:#000000;stroke-width:1.04503453;stroke-linecap:butt;stroke-linejoin:miter;stroke-miterlimit:4;stroke-dasharray:none;stroke-opacity:1" />
  </g>
</svg>
