<?xml version="1.0" encoding="UTF-8" standalone="no"?>
<svg
   xmlns:dc="http://purl.org/dc/elements/1.1/"
   xmlns:cc="http://creativecommons.org/ns#"
   xmlns:rdf="http://www.w3.org/1999/02/22-rdf-syntax-ns#"
   xmlns:svg="http://www.w3.org/2000/svg"
   xmlns="http://www.w3.org/2000/svg"
   height="104"
   width="103.99989"
   version="1.1"
   id="svg2"
   viewBox="81.95 201.95 103.99989 104">
  <metadata
     id="metadata15">
    <rdf:RDF>
      <cc:Work
         rdf:about="">
        <dc:format>image/svg+xml</dc:format>
        <dc:type
           rdf:resource="http://purl.org/dc/dcmitype/StillImage" />
        <dc:title></dc:title>
      </cc:Work>
    </rdf:RDF>
  </metadata>
  <defs
     id="defs13" />
  <g
     id="g4145">
    <g
       id="g4140">
      <g
         transform="matrix(24.271058,0,0,-24.271058,-1904.8189,5205.2458)"
         id="BWA957"
         style="fill:#ff7f00;fill-opacity:1;stroke:#ff7f00;stroke-width:0.12001502;stroke-miterlimit:4;stroke-dasharray:none;stroke-opacity:1">
        <path
           d="m 86,204 -0.0076,0.17431 -0.02277,0.17299 -0.03776,0.17034 -0.05247,0.1664 -0.06677,0.1612 -0.08057,0.15476 -0.09375,0.14715 -0.106215,0.13843 -0.117875,0.12863 -0.128639,0.11788 -0.138422,0.10621 -0.147153,0.0937 -0.154763,0.0806 -0.161197,0.0668 -0.166402,0.0525 -0.170342,0.0378 -0.172985,0.0228 L 84,206 l -0.174311,-0.008 -0.172985,-0.0228 -0.170342,-0.0378 -0.166402,-0.0525 -0.161197,-0.0668 -0.154763,-0.08 -0.147153,-0.0937 -0.138422,-0.10621 -0.128639,-0.11788 -0.117875,-0.12863 -0.106215,-0.13843 -0.09375,-0.14715 -0.08057,-0.15476 -0.06677,-0.1612 -0.05247,-0.1664 -0.03776,-0.17034 -0.02277,-0.17299 L 82,204 l 0.0076,-0.17431 0.02277,-0.17299 0.03776,-0.17034 0.05247,-0.1664 0.06677,-0.1612 0.08057,-0.15476 0.09375,-0.14715 0.106215,-0.13843 0.117875,-0.12863 0.128639,-0.11788 0.138422,-0.10621 0.147153,-0.0937 0.154763,-0.0806 0.161197,-0.0668 0.166402,-0.0525 0.170342,-0.0378 0.172985,-0.0228 L 84,202 l 0.174311,0.008 0.172985,0.0228 0.170342,0.0378 0.166402,0.0525 0.161197,0.0668 0.154763,0.0806 0.147153,0.0937 0.138422,0.10621 0.128639,0.11788 0.117875,0.12863 0.106215,0.13843 0.09375,0.14715 0.08057,0.15476 0.06677,0.1612 0.05247,0.1664 0.03776,0.17034 0.02277,0.17299 L 86,204 Z"
           id="path7"
           style="fill:#ff7f00;fill-opacity:1;stroke:#ff7f00;stroke-width:0.12001502;stroke-miterlimit:4;stroke-dasharray:none;stroke-opacity:1" />
        <path
           d="m 84,206 -0.174311,-0.008 -0.172985,-0.0228 -0.170342,-0.0378 -0.166402,-0.0525 -0.161197,-0.0668 -0.154763,-0.08 -0.147153,-0.0937 -0.138422,-0.10621 -0.128639,-0.11788 -0.117875,-0.12863 -0.106215,-0.13843 -0.09375,-0.14715 -0.08057,-0.15476 -0.06677,-0.1612 -0.05247,-0.1664 -0.03776,-0.17034 -0.02277,-0.17299 L 82,204 l 0.0076,-0.17431 0.02277,-0.17299 0.03776,-0.17034 0.05247,-0.1664 0.06677,-0.1612 0.08057,-0.15476 0.09375,-0.14715 0.106215,-0.13843 0.117875,-0.12863 0.128639,-0.11788 0.138422,-0.10621 0.147153,-0.0937 0.154763,-0.0806 0.161197,-0.0668 0.166402,-0.0525 0.170342,-0.0378 0.172985,-0.0228 L 84,202 l 0.174311,0.008 0.172985,0.0228 0.170342,0.0378 0.166402,0.0525 0.161197,0.0668 0.154763,0.0806 0.147153,0.0937 0.138422,0.10621 0.128639,0.11788 0.117875,0.12863 0.106215,0.13843 0.09375,0.14715 0.08057,0.15476 0.06677,0.1612 0.05247,0.1664 0.03776,0.17034 0.02277,0.17299 L 86,204 l -0.0076,0.17431 -0.02277,0.17299 -0.03776,0.17034 -0.05247,0.1664 -0.06677,0.1612 -0.08057,0.15476 -0.09375,0.14715 -0.106215,0.13843 -0.117875,0.12863 -0.128639,0.11788 -0.138422,0.10621 -0.147153,0.0937 -0.154763,0.0806 -0.161197,0.0668 -0.166402,0.0525 -0.170342,0.0378 -0.172985,0.0228 L 84,206 Z"
           id="path9"
           style="fill:#ff7f00;fill-opacity:1;stroke:#ff7f00;stroke-width:0.12001502;stroke-miterlimit:4;stroke-dasharray:none;stroke-opacity:1" />
      </g>
    </g>
  </g>
</svg>
