<?xml version="1.0" encoding="UTF-8" standalone="no"?>
<svg
   xmlns:dc="http://purl.org/dc/elements/1.1/"
   xmlns:cc="http://creativecommons.org/ns#"
   xmlns:rdf="http://www.w3.org/1999/02/22-rdf-syntax-ns#"
   xmlns:svg="http://www.w3.org/2000/svg"
   xmlns="http://www.w3.org/2000/svg"
   version="1.1"
   width="100"
   viewBox="141.95 21.95 100.00049 104"
   height="104"
   id="svg2">
  <defs
     id="defs13" />
  <metadata
     id="metadata21">
    <rdf:RDF>
      <cc:Work
         rdf:about="">
        <dc:format>image/svg+xml</dc:format>
        <dc:type
           rdf:resource="http://purl.org/dc/dcmitype/StillImage" />
        <dc:title></dc:title>
      </cc:Work>
    </rdf:RDF>
  </metadata>
  <g
     id="g4168">
    <path
       style="fill:#00a500;fill-opacity:1;stroke:#00a500;stroke-width:2.91653347;stroke-opacity:1"
       d="m 206.93345,59.021211 1.14601,1.250609 1.03255,1.345689 0.87496,1.429101 0.78358,1.504542 0.64941,1.56715 0.51039,1.617704 0.36748,1.656008 0.22166,1.681673 0.0972,1.691589 -0.0778,1.694604 -0.22166,1.681673 -0.36749,1.656005 -0.51039,1.617706 -0.64941,1.567149 -0.77775,1.504545 -0.91092,1.430557 -1.03255,1.345693 -1.14601,1.250606 -1.25051,1.146008 -1.34578,1.032649 -1.43056,0.911413 -1.50455,0.783286 -1.56715,0.649116 -1.6177,0.510101 -1.65601,0.367093 -1.68177,0.221367 -1.6527,0.07778 -1.69461,-0.07389 -1.68176,-0.221367 -1.65601,-0.367092 -1.61771,-0.510101 -1.56714,-0.649123 -1.50455,-0.783287 -1.43056,-0.911419 -1.34579,-1.032642 -1.25051,-1.146002 -1.146,-1.250605 -1.03256,-1.345694 -0.91092,-1.430563 -0.78358,-1.504538 -0.64941,-1.567157 -0.51039,-1.617698 -0.36749,-1.656008 -0.22165,-1.681673 -0.0972,-1.691589 0.0778,-1.694603 0.22166,-1.681673 0.36748,-1.656008 0.51039,-1.617704 0.64942,-1.56715 0.78357,-1.504543 0.91093,-1.430559 1.03256,-1.345688 1.146,-1.25061 1.25051,-1.146003 1.34579,-1.032647 1.43055,-0.911417 1.50454,-0.783283 1.56716,-0.649123 1.6177,-0.510102 1.65601,-0.367094 1.68177,-0.221365 1.6527,-0.07777 1.6946,0.07389 1.68178,0.221364 1.656,0.367095 1.61771,0.510102 1.56715,0.649122 1.50454,0.783284 1.43056,0.911417 1.34579,1.032647 1.25051,1.146003 z"
       id="path7" />
    <path
       style="fill:#00a500;fill-opacity:1;stroke:#00a500;stroke-width:2.91653347;stroke-opacity:1"
       d="m 212.66931,72.767804 -0.0778,-1.694603 -0.22166,-1.681673 -0.36748,-1.656008 -0.51039,-1.617704 -0.64941,-1.56715 -0.77775,-1.516598 -0.91093,-1.430559 -1.03255,-1.345688 -1.146,-1.25061 -1.25051,-1.146003 -1.34579,-1.032647 -1.43056,-0.911417 -1.50454,-0.783283 -1.56715,-0.649123 -1.61771,-0.510102 -1.656,-0.367095 -1.68178,-0.221364 -1.6527,-0.07777 -1.6946,0.07389 -1.68177,0.221365 -1.65601,0.367094 -1.6177,0.510102 -1.56716,0.649123 -1.45825,0.787464 -1.45828,0.913847 -1.36104,1.030508 -1.16662,1.14717 -1.16661,1.244388 -1.0694,1.351327 -0.87496,1.429101 -0.78357,1.504543 -0.64941,1.56715 -0.5104,1.617704 -0.36748,1.656008 -0.22166,1.681673 -0.0972,1.691589 0.0778,1.694603 0.22165,1.681673 0.36749,1.656007 0.51039,1.617706 0.64942,1.567149 0.77774,1.506871 0.91093,1.430564 1.03255,1.345686 1.146,1.250613 1.25051,1.146001 1.34578,1.032649 1.43057,0.911419 1.50454,0.78328 1.56715,0.649123 1.6177,0.510101 1.65601,0.367093 1.68177,0.221367 1.6527,0.07778 1.69461,-0.07389 1.68177,-0.221367 1.656,-0.367093 1.61771,-0.510101 1.56715,-0.649122 1.50454,-0.78328 1.43056,-0.911419 1.34579,-1.032649 1.25051,-1.146002 1.146,-1.250612 1.03255,-1.345694 0.91093,-1.430556 0.78357,-1.504538 0.64942,-1.56715 0.51039,-1.617705 0.36749,-1.65601 0.22166,-1.681672 0.0972,-1.69159 z"
       id="path9" />
    <path
       style="fill:#00a500;fill-opacity:1;stroke:#00a500;stroke-width:2.91653347;stroke-opacity:1"
       d="m 203.54644,36.364734 -0.0389,-0.858335 -0.1118,-0.851823 -0.18569,-0.838795 -0.2586,-0.819351 -0.32859,-0.793783 -0.39666,-0.76209 -0.46178,-0.724564 -0.52304,-0.681595 -0.58039,-0.633373 -0.63288,-0.58039 -0.6815,-0.523032 -0.72426,-0.46159 -0.76219,-0.396648 -0.7933,-0.328791 -0.81955,-0.258308 -0.83899,-0.185977 -0.85163,-0.112092 -0.85842,-0.03791 -0.85844,0.03791 -0.85163,0.112092 -0.83898,0.185977 -0.81956,0.258308 -0.79329,0.328791 -0.76219,0.396648 -0.72427,0.46159 -0.6815,0.523032 -0.63288,0.58039 -0.58039,0.633373 -0.52304,0.681595 -0.46178,0.724564 -0.39665,0.76209 -0.32859,0.793783 -0.2586,0.819351 -0.18569,0.838795 -0.1118,0.851823 -0.0389,0.858335 0.0389,0.858336 0.1118,0.851822 0.18569,0.838795 0.2586,0.819351 0.32859,0.793687 0.39665,0.76209 0.46178,0.724563 0.52304,0.681594 0.58039,0.633471 0.63288,0.58039 0.6815,0.523033 0.72427,0.461589 0.76219,0.396746 0.79329,0.328791 0.81956,0.258307 0.83898,0.185977 0.85163,0.112092 0.85844,0.03791 0.85842,-0.03791 0.85163,-0.112092 0.83899,-0.185977 0.81955,-0.258307 0.7933,-0.328791 0.76219,-0.396746 0.72426,-0.461589 0.6815,-0.523033 0.63288,-0.58039 0.58039,-0.633471 0.52304,-0.681594 0.46178,-0.724563 0.39666,-0.76209 0.32859,-0.793687 0.2586,-0.819351 0.18569,-0.838795 0.1118,-0.851822 0.0389,-0.858336 z"
       id="path11" />
    <path
       style="fill:#00a500;fill-opacity:1;stroke:#00a500;stroke-width:2.91653347;stroke-opacity:1"
       d="m 193.12541,26.516574 0.85844,0.03791 0.85162,0.112092 0.83899,0.185978 0.81954,0.258307 0.79331,0.328791 0.76219,0.396648 0.72427,0.46159 0.68149,0.523032 0.63289,0.58039 0.58039,0.633374 0.52304,0.681593 0.46178,0.724565 0.39664,0.76209 0.3286,0.793782 0.2586,0.819352 0.18569,0.838795 0.1118,0.851823 0.0389,0.858335 -0.0389,0.858335 -0.1118,0.851823 -0.18569,0.838795 -0.2586,0.819351 -0.3286,0.793686 -0.39664,0.76209 -0.46178,0.724564 -0.52304,0.681594 -0.58039,0.633471 -0.63289,0.580391 -0.68149,0.523031 -0.72427,0.46159 -0.76219,0.396746 -0.79331,0.32879 -0.81954,0.258308 -0.83899,0.185977 -0.85162,0.112092 -0.85844,0.03792 -0.85843,-0.03792 -0.85163,-0.112092 -0.83899,-0.185977 -0.81954,-0.258308 -0.7933,-0.32879 -0.76219,-0.396746 -0.72427,-0.46159 -0.68149,-0.523031 -0.6329,-0.580391 -0.58039,-0.633471 -0.52303,-0.681594 -0.46179,-0.724564 -0.39664,-0.76209 -0.32859,-0.793686 -0.25861,-0.819351 -0.18568,-0.838795 -0.1118,-0.851823 -0.0389,-0.858335 0.0389,-0.858335 0.1118,-0.851823 0.18568,-0.838795 0.25861,-0.819352 0.32859,-0.793782 0.39664,-0.76209 0.46179,-0.724565 0.52303,-0.681593 0.58039,-0.633374 0.6329,-0.58039 0.68149,-0.523032 0.72427,-0.46159 0.76219,-0.396648 0.7933,-0.328791 0.81954,-0.258307 0.83899,-0.185978 0.85163,-0.112092 0.85843,-0.03791 z"
       id="path13" />
    <rect
       style="fill:#00a500;fill-opacity:1;stroke:#00a500;stroke-width:1.93203652;stroke-miterlimit:4;stroke-dasharray:none;stroke-opacity:1"
       id="rect4155"
       width="0.60203773"
       height="36.122269"
       x="193.03648"
       y="36.637875" />
  </g>
</svg>
