<?xml version="1.0" encoding="UTF-8" standalone="no"?>
<svg
   xmlns:dc="http://purl.org/dc/elements/1.1/"
   xmlns:cc="http://creativecommons.org/ns#"
   xmlns:rdf="http://www.w3.org/1999/02/22-rdf-syntax-ns#"
   xmlns:svg="http://www.w3.org/2000/svg"
   xmlns="http://www.w3.org/2000/svg"
   viewBox="81.95 201.95 103.99989 104"
   id="svg2"
   version="1.1"
   width="103.99989"
   height="104">
  <metadata
     id="metadata15">
    <rdf:RDF>
      <cc:Work
         rdf:about="">
        <dc:format>image/svg+xml</dc:format>
        <dc:type
           rdf:resource="http://purl.org/dc/dcmitype/StillImage" />
        <dc:title></dc:title>
      </cc:Work>
    </rdf:RDF>
  </metadata>
  <defs
     id="defs13" />
  <g
     id="g4182">
    <path
       style="fill:#1f8093;fill-opacity:1;stroke:#1f8093;stroke-width:2.91289139;stroke-miterlimit:4;stroke-dasharray:none;stroke-opacity:1"
       id="path7"
       d="m 182.49209,253.94997 -0.18446,-4.23069 -0.55265,-4.19865 -0.91648,-4.13433 -1.2735,-4.03871 -1.62058,-3.91249 -1.95552,-3.75619 -2.27541,-3.57149 -2.57795,-3.35984 -2.86095,-3.12198 -3.12221,-2.86108 -3.35965,-2.57783 -3.57155,-2.27419 -3.75627,-1.95625 -3.91242,-1.62131 -4.03875,-1.27423 -4.13438,-0.91744 -4.19853,-0.55339 -4.23086,-0.18203 -4.23071,0.19417 -4.19853,0.55338 -4.13438,0.91745 -4.03875,1.27423 -3.91242,1.6213 -3.75627,1.94169 -3.57155,2.2742 -3.35965,2.57783 -3.122208,2.86107 -2.860951,3.12198 -2.57795,3.35985 -2.275412,3.57148 -1.955519,3.75619 -1.620579,3.9125 -1.273502,4.0387 -0.916475,4.13433 -0.552652,4.19865 -0.184606,4.23312 0.18446,4.23069 0.552652,4.19865 0.916475,4.13433 1.273503,4.0387 1.620578,3.9125 1.955519,3.75619 2.275412,3.57148 2.57795,3.35984 2.860951,3.12199 3.122204,2.86107 3.35965,2.57783 3.57156,2.2742 3.75626,1.95625 3.91242,1.6213 4.03875,1.27423 4.13439,0.91745 4.19852,0.55338 4.23086,0.18203 4.23071,-0.19416 4.19853,-0.55338 4.13438,-0.91745 4.03876,-1.27423 3.91242,-1.62131 3.75626,-1.95625 3.57156,-2.27419 3.35965,-2.57783 3.1222,-2.86107 2.86095,-3.12199 2.57795,-3.35984 2.27542,-3.57149 1.95551,-3.75619 1.62058,-3.91249 1.27351,-4.03871 0.91647,-4.13433 0.55265,-4.19865 0.18461,-4.21855 z" />
    <path
       style="fill:#1f8093;fill-opacity:1;stroke:#1f8093;stroke-width:2.91289139;stroke-miterlimit:4;stroke-dasharray:none;stroke-opacity:1"
       id="path9"
       d="m 133.94997,205.40785 -4.23071,0.19417 -4.19853,0.55338 -4.13438,0.91745 -4.03875,1.27423 -3.91242,1.6213 -3.75627,1.94169 -3.57155,2.2742 -3.35965,2.57783 -3.122208,2.86107 -2.860951,3.12198 -2.57795,3.35985 -2.275412,3.57148 -1.955519,3.75619 -1.620579,3.9125 -1.273502,4.0387 -0.916475,4.13433 -0.552652,4.19865 -0.184606,4.23312 0.18446,4.23069 0.552652,4.19865 0.916475,4.13433 1.273503,4.0387 1.620578,3.9125 1.955519,3.75619 2.275412,3.57148 2.57795,3.35984 2.860951,3.12199 3.122204,2.86107 3.35965,2.57783 3.57156,2.2742 3.75626,1.95625 3.91242,1.6213 4.03875,1.27423 4.13439,0.91745 4.19852,0.55338 4.23086,0.18203 4.23071,-0.19416 4.19853,-0.55338 4.13438,-0.91745 4.03876,-1.27423 3.91242,-1.62131 3.75626,-1.95625 3.57156,-2.27419 3.35965,-2.57783 3.1222,-2.86107 2.86095,-3.12199 2.57795,-3.35984 2.27542,-3.57149 1.95551,-3.75619 1.62058,-3.91249 1.27351,-4.03871 0.91647,-4.13433 0.55265,-4.19865 0.18461,-4.21855 -0.18446,-4.23069 -0.55265,-4.19865 -0.91648,-4.13433 -1.2735,-4.03871 -1.62058,-3.91249 -1.95552,-3.75619 -2.27541,-3.57149 -2.57795,-3.35984 -2.86095,-3.12198 -3.12221,-2.86108 -3.35965,-2.57783 -3.57155,-2.27419 -3.75627,-1.95625 -3.91242,-1.62131 -4.03875,-1.27423 -4.13438,-0.91744 -4.19853,-0.55339 -4.23086,-0.18203 z" />
  </g>
</svg>
