<?xml version="1.0" encoding="UTF-8" standalone="no"?>
<svg
   xmlns:dc="http://purl.org/dc/elements/1.1/"
   xmlns:cc="http://creativecommons.org/ns#"
   xmlns:rdf="http://www.w3.org/1999/02/22-rdf-syntax-ns#"
   xmlns:svg="http://www.w3.org/2000/svg"
   xmlns="http://www.w3.org/2000/svg"
   xmlns:sodipodi="http://sodipodi.sourceforge.net/DTD/sodipodi-0.dtd"
   xmlns:inkscape="http://www.inkscape.org/namespaces/inkscape"
   id="svg2"
   height="104"
   viewBox="141.95 21.95 100.00049 104"
   width="100"
   version="1.1"
   inkscape:version="0.91 r13725"
   sodipodi:docname="Vanne_Papillon_noir.svg">
  <sodipodi:namedview
     pagecolor="#ffffff"
     bordercolor="#666666"
     borderopacity="1"
     objecttolerance="10"
     gridtolerance="10"
     guidetolerance="10"
     inkscape:pageopacity="0"
     inkscape:pageshadow="2"
     inkscape:window-width="693"
     inkscape:window-height="480"
     id="namedview11"
     showgrid="false"
     inkscape:zoom="2.2692308"
     inkscape:cx="49.118644"
     inkscape:cy="53.762712"
     inkscape:window-x="0"
     inkscape:window-y="0"
     inkscape:window-maximized="0"
     inkscape:current-layer="svg2" />
  <defs
     id="defs13" />
  <metadata
     id="metadata21">
    <rdf:RDF>
      <cc:Work
         rdf:about="">
        <dc:format>image/svg+xml</dc:format>
        <dc:type
           rdf:resource="http://purl.org/dc/dcmitype/StillImage" />
        <dc:title></dc:title>
      </cc:Work>
    </rdf:RDF>
  </metadata>
  <g
     transform="translate(-0.44068012,0.47418974)"
     id="g4144">
    <path
       id="path7"
       d="m 212.20389,73.138096 1.67018,1.822635 1.50484,1.961203 1.27516,2.082769 1.14199,2.192716 0.94645,2.283961 0.74385,2.357638 0.53556,2.413462 0.32304,2.450866 0.14169,2.465318 -0.11334,2.469711 -0.32305,2.450866 -0.53557,2.413459 -0.74384,2.35764 -0.94646,2.28396 -1.13348,2.19272 -1.32758,2.08489 -1.50484,1.96121 -1.67019,1.82263 -1.82249,1.67019 -1.96134,1.50498 -2.08489,1.32829 -2.19272,1.14156 -2.28396,0.94602 -2.35764,0.74342 -2.41346,0.535 -2.45101,0.32262 -2.40864,0.11335 -2.46972,-0.10768 -2.451,-0.32262 -2.41346,-0.535 -2.35765,-0.74342 -2.28395,-0.94603 -2.19272,-1.14156 -2.08489,-1.3283 -1.96135,-1.50497 -1.82249,-1.67018 -1.67019,-1.82263 -1.50484,-1.96121 -1.32758,-2.0849 -1.14198,-2.19271 -0.94646,-2.28397 -0.74384,-2.35763 -0.53557,-2.413462 -0.32304,-2.450866 -0.14169,-2.465318 0.11335,-2.46971 0.32305,-2.450867 0.53556,-2.413462 0.74384,-2.357637 0.94646,-2.283961 1.14198,-2.192717 1.32759,-2.084894 1.50484,-1.961203 1.67018,-1.822635 1.82249,-1.670183 1.96135,-1.504977 2.08489,-1.328296 2.19271,-1.141556 2.28397,-0.94603 2.35764,-0.743421 2.41346,-0.535002 2.451,-0.322617 2.40865,-0.113348 2.46971,0.107681 2.45101,0.322615 2.41346,0.535003 2.35764,0.743421 2.28396,0.94603 2.19272,1.141556 2.08489,1.328297 1.96135,1.504977 1.82249,1.670182 z"
       style="fill:#000000;fill-opacity:1;stroke:#000000;stroke-width:4.25054884;stroke-opacity:1"
       inkscape:connector-curvature="0" />
    <path
       id="path9"
       d="m 220.56331,93.172348 -0.11336,-2.469711 -0.32304,-2.450866 -0.53556,-2.413462 -0.74385,-2.357637 -0.94645,-2.283961 -1.13348,-2.210286 -1.3276,-2.084894 -1.50483,-1.961202 -1.67018,-1.822636 -1.82249,-1.670182 -1.96135,-1.504978 -2.0849,-1.328296 -2.19271,-1.141556 -2.28396,-0.94603 -2.35764,-0.743421 -2.41346,-0.535003 -2.45101,-0.322616 -2.40865,-0.113348 -2.46971,0.10768 -2.451,0.322617 -2.41346,0.535002 -2.35764,0.743422 -2.28397,0.94603 -2.12526,1.147648 -2.12528,1.331838 -1.98359,1.501861 -1.70022,1.671882 -1.70022,1.813568 -1.55854,1.969421 -1.27516,2.082768 -1.14198,2.192717 -0.94645,2.283961 -0.74385,2.357638 -0.53557,2.413462 -0.32304,2.450866 -0.14168,2.465318 0.11334,2.46971 0.32304,2.450867 0.53558,2.413461 0.74384,2.35764 0.94646,2.28396 1.13348,2.19611 1.32758,2.0849 1.50484,1.9612 1.67018,1.82264 1.82249,1.67018 1.96134,1.50498 2.0849,1.3283 2.19272,1.14155 2.28396,0.94603 2.35763,0.74342 2.41346,0.535 2.45102,0.32262 2.40864,0.11335 2.46971,-0.10768 2.45101,-0.32262 2.41346,-0.535 2.35764,-0.74342 2.28396,-0.94603 2.19271,-1.14155 2.0849,-1.3283 1.96135,-1.50498 1.82249,-1.67018 1.67018,-1.82264 1.50483,-1.96121 1.32759,-2.08489 1.14198,-2.19271 0.94646,-2.28396 0.74384,-2.35764 0.53558,-2.413464 0.32304,-2.450866 0.14168,-2.465318 z"
       style="fill:#000000;fill-opacity:1;stroke:#000000;stroke-width:4.25054884;stroke-opacity:1"
       inkscape:connector-curvature="0" />
    <path
       id="path11"
       d="m 207.26767,40.118601 -0.0567,-1.250936 -0.16294,-1.241444 -0.27062,-1.222458 -0.37688,-1.19412 -0.47889,-1.156858 -0.57809,-1.110668 -0.673,-1.055978 -0.76227,-0.993354 -0.84586,-0.923077 -0.92236,-0.845859 -0.99322,-0.762266 -1.05554,-0.67272 -1.11081,-0.578074 -1.15615,-0.479179 -1.19441,-0.376457 -1.22274,-0.271042 -1.24116,-0.163363 -1.25107,-0.05525 -1.25109,0.05525 -1.24116,0.163363 -1.22273,0.271042 -1.19442,0.376457 -1.15614,0.479179 -1.11081,0.578074 -1.05555,0.67272 -0.99322,0.762266 -0.92236,0.845859 -0.84586,0.923077 -0.76227,0.993354 -0.673,1.055978 -0.57808,1.110668 -0.47889,1.156858 -0.37688,1.19412 -0.27062,1.222458 -0.16294,1.241444 -0.0567,1.250936 0.0567,1.250936 0.16294,1.241444 0.27062,1.222458 0.37688,1.19412 0.47889,1.156717 0.57808,1.110668 0.673,1.055977 0.76227,0.993354 0.84586,0.923219 0.92236,0.845859 0.99322,0.762266 1.05555,0.67272 1.11081,0.578216 1.15614,0.479179 1.19442,0.376456 1.22273,0.271043 1.24116,0.163363 1.25109,0.05525 1.25107,-0.05525 1.24116,-0.163363 1.22274,-0.271043 1.19441,-0.376456 1.15615,-0.479179 1.11081,-0.578216 1.05554,-0.67272 0.99322,-0.762266 0.92236,-0.845859 0.84586,-0.923219 0.76227,-0.993354 0.673,-1.055977 0.57809,-1.110668 0.47889,-1.156717 0.37688,-1.19412 0.27062,-1.222458 0.16294,-1.241444 0.0567,-1.250936 z"
       style="fill:#000000;fill-opacity:1;stroke:#000000;stroke-width:4.25054884;stroke-opacity:1"
       inkscape:connector-curvature="0" />
    <path
       id="path13"
       d="m 192.08008,25.765916 1.25108,0.05525 1.24116,0.163362 1.22274,0.271044 1.1944,0.376456 1.15616,0.479179 1.11081,0.578075 1.05555,0.67272 0.99321,0.762265 0.92237,0.845859 0.84586,0.923078 0.76227,0.993352 0.673,1.055979 0.57807,1.110668 0.4789,1.156857 0.37688,1.194121 0.27062,1.222458 0.16294,1.241444 0.0567,1.250936 -0.0567,1.250936 -0.16294,1.241444 -0.27062,1.222458 -0.37688,1.19412 -0.4789,1.156717 -0.57807,1.110668 -0.673,1.055978 -0.76227,0.993353 -0.84586,0.923219 -0.92237,0.84586 -0.99321,0.762264 -1.05555,0.672721 -1.11081,0.578216 -1.15616,0.479178 -1.1944,0.376458 -1.22274,0.271042 -1.24116,0.163363 -1.25108,0.05526 -1.25107,-0.05526 -1.24117,-0.163363 -1.22274,-0.271042 -1.1944,-0.376458 -1.15615,-0.479178 -1.11081,-0.578216 -1.05556,-0.672721 -0.9932,-0.762264 -0.92238,-0.84586 -0.84586,-0.923219 -0.76226,-0.993353 -0.67301,-1.055978 -0.57807,-1.110668 -0.47889,-1.156717 -0.37689,-1.19412 -0.27061,-1.222458 -0.16294,-1.241444 -0.0567,-1.250936 0.0567,-1.250936 0.16294,-1.241444 0.27061,-1.222458 0.37689,-1.194121 0.47889,-1.156857 0.57807,-1.110668 0.67301,-1.055979 0.76226,-0.993352 0.84586,-0.923078 0.92238,-0.845859 0.9932,-0.762265 1.05556,-0.67272 1.11081,-0.578075 1.15615,-0.479179 1.1944,-0.376456 1.22274,-0.271044 1.24117,-0.163362 1.25107,-0.05525 z"
       style="fill:#000000;fill-opacity:1;stroke:#000000;stroke-width:4.25054884;stroke-opacity:1"
       inkscape:connector-curvature="0" />
    <rect
       y="40.516674"
       x="191.95047"
       height="52.644508"
       width="0.87740839"
       id="rect4155"
       style="fill:#000000;fill-opacity:1;stroke:#000000;stroke-width:2.81574535;stroke-miterlimit:4;stroke-dasharray:none;stroke-opacity:1" />
  </g>
</svg>
