<?xml version="1.0" encoding="UTF-8" standalone="no"?>
<!-- Created with Inkscape (http://www.inkscape.org/) -->

<svg
   xmlns:dc="http://purl.org/dc/elements/1.1/"
   xmlns:cc="http://creativecommons.org/ns#"
   xmlns:rdf="http://www.w3.org/1999/02/22-rdf-syntax-ns#"
   xmlns:svg="http://www.w3.org/2000/svg"
   xmlns="http://www.w3.org/2000/svg"
   version="1.1"
   width="745.09375"
   height="745.1875"
   id="svg2">
  <defs
     id="defs4">
    <symbol
       id="*Paper_Space0" />
    <symbol
       id="*Paper_Space" />
    <symbol
       id="*Model_Space" />
    <pattern
       height="8"
       width="8"
       patternUnits="userSpaceOnUse"
       y="0"
       x="0"
       id="Hatch">
      <path
         linecap="square"
         stroke="#000000"
         stroke-width="0.25"
         d="M8 4 l-4,4"
         id="path2995" />
      <path
         linecap="square"
         stroke="#000000"
         stroke-width="0.25"
         d="M6 2 l-4,4"
         id="path2997" />
      <path
         linecap="square"
         stroke="#000000"
         stroke-width="0.25"
         d="M4 0 l-4,4"
         id="path2999" />
    </pattern>
    <marker
       refX="0"
       refY="0"
       orient="auto"
       id="DistanceX"
       style="overflow:visible">
      <path
         d="M 3,-3 -3,3 M 0,-5 0,5"
         id="path2992"
         style="stroke:#000000;stroke-width:0.5" />
    </marker>
  </defs>
  <metadata
     id="metadata7">
    <rdf:RDF>
      <cc:Work
         rdf:about="">
        <dc:format>image/svg+xml</dc:format>
        <dc:type
           rdf:resource="http://purl.org/dc/dcmitype/StillImage" />
        <dc:title></dc:title>
      </cc:Work>
    </rdf:RDF>
  </metadata>
  <g
     transform="translate(-1.7384641,0.23403)"
     id="layer1">
    <g
       transform="translate(2.2384671,-307.95278)"
       id="g3031">
      <g
         id="g3004" />
      <g
         id="g3006">
        <path
           d="M 744.09448,680.31496 A 372.04724,372.04724 0 1 0 6e-6,680.31496 372.04724,372.04724 0 1 0 744.09448,680.31496 z"
           id="path3008"
           style="fill:none;stroke:#ffffff" />
        <path
           d="m 744.09448,680.31496 -1.41575,-32.42605 -4.23648,-32.17927 -7.02497,-31.68759 -9.75999,-30.95474 L 709.23655,523.081 694.2496,494.29134 676.8105,466.91743 657.05196,441.1676 635.12437,417.23784 611.1946,395.31024 585.44477,375.55171 558.07086,358.1126 529.2812,343.12565 l -29.98631,-12.42073 -30.95474,-9.76 -31.68758,-7.02496 -32.17927,-4.23649 -32.42606,-1.41575 -32.42605,1.41575 -32.17927,4.23649 -31.68759,7.02496 -30.95474,9.76 -29.9863,12.42073 -28.78967,14.98695 -27.37391,17.43911 -25.74982,19.75853 -23.92977,21.9276 L 87.042524,441.1676 67.283988,466.91743 49.844884,494.29134 34.857935,523.081 22.437199,553.06731 12.677208,584.02205 5.652239,615.70964 1.415758,647.88891 6e-6,680.31496 l 1.415752,32.42605 4.236481,32.17928 7.024969,31.68758 9.759991,30.95474 12.420736,29.98631 14.986949,28.78966 17.439104,27.37391 19.758536,25.74983 21.927596,23.92977 23.92977,21.92759 25.74982,19.75854 27.37391,17.43908 28.78967,14.987 29.9863,12.4207 30.95474,9.76 31.68759,7.025 32.17927,4.2364 32.42605,1.4158 32.42606,-1.4158 32.17927,-4.2364 31.68758,-7.025 30.95474,-9.76 29.98631,-12.4207 28.78966,-14.987 27.37391,-17.43908 25.74983,-19.75854 23.92977,-21.92759 21.92759,-23.92977 19.75854,-25.74983 17.4391,-27.37391 14.98695,-28.78966 12.42074,-29.98631 9.75999,-30.95474 7.02497,-31.68758 4.23648,-32.17928 z"
           id="path3010"
           style="fill:#ffffff" />
        <path
           d="m 372.04724,308.26772 a 372.04724,372.04724 0 0 1 0,744.09448 372.04724,372.04724 0 0 1 0,-744.09448 z"
           id="path3012"
           style="fill:none;stroke:#000000" />
        <path
           d="m 372.04724,308.26772 0,744.09448"
           id="path3014"
           style="fill:none;stroke:#000000" />
        <path
           d="m 0,680.31496 744.09449,0"
           id="path3016"
           style="fill:none;stroke:#000000" />
      </g>
    </g>
  </g>
</svg>
