<?xml version="1.0" encoding="UTF-8" standalone="no"?>
<!-- Created with Inkscape (http://www.inkscape.org/) -->

<svg
   xmlns:dc="http://purl.org/dc/elements/1.1/"
   xmlns:cc="http://creativecommons.org/ns#"
   xmlns:rdf="http://www.w3.org/1999/02/22-rdf-syntax-ns#"
   xmlns:svg="http://www.w3.org/2000/svg"
   xmlns="http://www.w3.org/2000/svg"
   version="1.1"
   width="100%"
   height="100%"
   viewBox="95.377677 -56.761531 42.294922 43.968001"
   id="svg2">
  <metadata
     id="metadata29">
    <rdf:RDF>
      <cc:Work
         rdf:about="">
        <dc:format>image/svg+xml</dc:format>
        <dc:type
           rdf:resource="http://purl.org/dc/dcmitype/StillImage" />
        <dc:title></dc:title>
      </cc:Work>
    </rdf:RDF>
  </metadata>
  <defs
     id="defs27" />
  <g
     transform="matrix(5.9487258,0,0,5.9487258,-469.98205,281.15558)"
     id="g3829"
     style="fill:none;stroke:#000000;stroke-width:0.33620644;stroke-miterlimit:4;stroke-opacity:1;stroke-dasharray:none">
    <path
       d="m 100.01056,-53.361909 0.11787,0.128638 0.10622,0.138423 0.0937,0.147153 0.0806,0.154763 0.0668,0.161196 0.0525,0.166402 0.0378,0.170342 0.0228,0.172985 0.008,0.174312 -0.008,0.174311 -0.0228,0.172985 -0.0378,0.170342 -0.0525,0.166402 -0.0668,0.161196 -0.0806,0.154764 -0.0937,0.147152 -0.10622,0.138423 -0.11787,0.128638 -0.128642,0.117875 -0.138423,0.106216 -0.147153,0.09375 -0.154763,0.08057 -0.161196,0.06677 -0.166403,0.05247 -0.170341,0.03776 -0.172985,0.02277 -0.174312,0.0076 -0.174311,-0.0076 -0.172985,-0.02277 -0.170342,-0.03776 -0.166402,-0.05247 -0.161196,-0.06677 -0.154764,-0.08057 -0.147152,-0.09375 -0.138423,-0.106216 -0.128638,-0.117875 -0.117875,-0.128638 -0.106216,-0.138423 -0.09375,-0.147152 -0.08056,-0.154764 -0.06677,-0.161196 -0.05247,-0.166402 -0.03776,-0.170342 -0.02277,-0.172985 -0.0076,-0.174311 0.0076,-0.174312 0.02277,-0.172985 0.03776,-0.170342 0.05247,-0.166402 0.06677,-0.161196 0.08056,-0.154763 0.09375,-0.147153 0.106216,-0.138423 0.117875,-0.128638 0.128638,-0.117875 0.138423,-0.106216 0.147152,-0.09375 0.154764,-0.08057 0.161196,-0.06677 0.166402,-0.05247 0.170342,-0.03776 0.172985,-0.02277 0.174311,-0.0076 0.174312,0.0076 0.172985,0.02277 0.170341,0.03776 0.166403,0.05247 0.161196,0.06677 0.154763,0.08057 0.147153,0.09375 0.138423,0.106216 0.128642,0.117875 z"
       id="path7"
       style="fill:none;stroke:#000000;stroke-width:0.33620644;stroke-miterlimit:4;stroke-opacity:1;stroke-dasharray:none" />
    <path
       d="m 100.59635,-51.947695 -0.008,-0.174312 -0.0228,-0.172985 -0.0378,-0.170342 -0.0525,-0.166402 -0.0668,-0.161196 -0.0806,-0.154763 -0.0937,-0.147153 -0.10622,-0.138423 -0.11787,-0.128638 -0.128642,-0.117875 -0.138423,-0.106216 -0.147153,-0.09375 -0.154763,-0.08057 -0.161196,-0.06677 -0.166403,-0.05247 -0.170341,-0.03776 -0.172985,-0.02277 -0.174312,-0.0076 -0.174311,0.0076 -0.172985,0.02277 -0.170342,0.03776 -0.166402,0.05247 -0.161196,0.06677 -0.154764,0.08057 -0.147152,0.09375 -0.138423,0.106216 -0.128638,0.117875 -0.117875,0.128638 -0.106216,0.138423 -0.09375,0.147153 -0.08056,0.154763 -0.06677,0.161196 -0.05247,0.166402 -0.03776,0.170342 -0.02277,0.172985 -0.0076,0.174312 0.0076,0.174311 0.02277,0.172985 0.03776,0.170342 0.05247,0.166402 0.06677,0.161196 0.08056,0.154764 0.09375,0.147152 0.106216,0.138423 0.117875,0.128638 0.128638,0.117875 0.138423,0.106216 0.147152,0.09375 0.154764,0.08057 0.161196,0.06677 0.166402,0.05247 0.170342,0.03776 0.172985,0.02277 0.174311,0.0076 0.174312,-0.0076 0.172985,-0.02277 0.170341,-0.03776 0.166403,-0.05247 0.161196,-0.06677 0.154763,-0.08057 0.147153,-0.09375 0.138423,-0.106216 0.128642,-0.117875 0.11787,-0.128638 0.10622,-0.138423 0.0937,-0.147152 0.0806,-0.154764 0.0668,-0.161196 0.0525,-0.166402 0.0378,-0.170342 0.0228,-0.172985 0.008,-0.174311 z"
       id="path9"
       style="fill:none;stroke:#000000;stroke-width:0.33620644;stroke-miterlimit:4;stroke-opacity:1;stroke-dasharray:none" />
    <path
       d="m 99.609329,-55.25878 -0.0039,-0.08829 -0.01153,-0.08762 -0.01913,-0.08628 -0.02657,-0.08428 -0.03382,-0.08164 -0.04081,-0.07839 -0.04748,-0.07453 -0.0538,-0.07011 -0.0597,-0.06516 -0.06515,-0.0597 -0.07011,-0.0538 -0.07453,-0.04748 -0.07839,-0.04081 -0.08164,-0.03382 -0.08428,-0.02657 -0.08628,-0.01913 -0.08762,-0.01154 -0.08829,-0.0039 -0.08829,0.0039 -0.08762,0.01154 -0.08628,0.01913 -0.08428,0.02657 -0.08164,0.03382 -0.07839,0.04081 -0.07453,0.04748 -0.07011,0.0538 -0.06516,0.0597 -0.0597,0.06516 -0.0538,0.07011 -0.04748,0.07453 -0.04081,0.07839 -0.03382,0.08164 -0.02657,0.08428 -0.01913,0.08628 -0.01153,0.08762 -0.0039,0.08829 0.0039,0.08829 0.01153,0.08762 0.01913,0.08628 0.02657,0.08428 0.03382,0.08165 0.04081,0.07839 0.04748,0.07453 0.0538,0.07011 0.0597,0.06515 0.06516,0.0597 0.07011,0.0538 0.07453,0.04748 0.07839,0.0408 0.08164,0.03382 0.08428,0.02657 0.08628,0.01913 0.08762,0.01154 0.08829,0.0039 0.08829,-0.0039 0.08762,-0.01154 0.08628,-0.01913 0.08428,-0.02657 0.08164,-0.03382 0.07839,-0.0408 0.07453,-0.04748 0.07011,-0.0538 0.06515,-0.0597 0.0597,-0.06515 0.0538,-0.07011 0.04748,-0.07453 0.04081,-0.07839 0.03382,-0.08165 0.02657,-0.08428 0.01913,-0.08628 0.01153,-0.08762 0.0039,-0.08829 z"
       id="path11"
       style="fill:none;stroke:#000000;stroke-width:0.33620644;stroke-miterlimit:4;stroke-opacity:1;stroke-dasharray:none" />
    <path
       d="m 98.596342,-56.271767 0.08829,0.0039 0.08762,0.01154 0.08628,0.01913 0.08428,0.02657 0.08164,0.03382 0.07839,0.04081 0.07453,0.04748 0.07011,0.0538 0.06515,0.0597 0.0597,0.06516 0.0538,0.07011 0.04748,0.07453 0.04081,0.07839 0.03382,0.08164 0.02657,0.08428 0.01913,0.08628 0.01153,0.08762 0.0039,0.08829 -0.0039,0.08829 -0.01153,0.08762 -0.01913,0.08628 -0.02657,0.08428 -0.03382,0.08165 -0.04081,0.07839 -0.04748,0.07453 -0.0538,0.07011 -0.0597,0.06515 -0.06515,0.0597 -0.07011,0.0538 -0.07453,0.04748 -0.07839,0.0408 -0.08164,0.03382 -0.08428,0.02657 -0.08628,0.01913 -0.08762,0.01154 -0.08829,0.0039 -0.08829,-0.0039 -0.08762,-0.01154 -0.08628,-0.01913 -0.08428,-0.02657 -0.08164,-0.03382 -0.07839,-0.0408 -0.07453,-0.04748 -0.07011,-0.0538 -0.06516,-0.0597 -0.0597,-0.06515 -0.0538,-0.07011 -0.04748,-0.07453 -0.04081,-0.07839 -0.03382,-0.08165 -0.02657,-0.08428 -0.01913,-0.08628 -0.01153,-0.08762 -0.0039,-0.08829 0.0039,-0.08829 0.01153,-0.08762 0.01913,-0.08628 0.02657,-0.08428 0.03382,-0.08164 0.04081,-0.07839 0.04748,-0.07453 0.0538,-0.07011 0.0597,-0.06516 0.06516,-0.0597 0.07011,-0.0538 0.07453,-0.04748 0.07839,-0.04081 0.08164,-0.03382 0.08428,-0.02657 0.08628,-0.01913 0.08762,-0.01154 0.08829,-0.0039 z"
       id="path13"
       style="fill:none;stroke:#000000;stroke-width:0.33620644;stroke-miterlimit:4;stroke-opacity:1;stroke-dasharray:none" />
    <path
       d="m 98.596342,-54.245793 0,0.298098"
       id="path15"
       style="fill:none;stroke:#000000;stroke-width:0.33620644;stroke-miterlimit:4;stroke-opacity:1;stroke-dasharray:none" />
    <path
       d="m 95.583355,-50.934708 0.08829,-0.0039 0.08762,-0.01153 0.08628,-0.01913 0.08428,-0.02657 0.08164,-0.03382 0.07839,-0.04081 0.07453,-0.04748 0.07011,-0.0538 0.06515,-0.0597 0.0597,-0.06515 0.0538,-0.07011 0.04748,-0.07453 0.0408,-0.07839 0.03382,-0.08165 0.02657,-0.08428 0.01913,-0.08628 0.01154,-0.08762 0.0039,-0.08829 -0.0039,-0.08829 -0.01154,-0.08762 -0.01913,-0.08628 -0.02657,-0.08428 -0.03382,-0.08165 -0.0408,-0.07839 -0.04748,-0.07453 -0.0538,-0.07011 -0.0597,-0.06515 -0.06515,-0.0597 -0.07011,-0.0538 -0.07453,-0.04748 -0.07839,-0.0408 -0.08164,-0.03382 -0.08428,-0.02657 -0.08628,-0.01913 -0.08762,-0.01154 -0.08829,-0.0039 0,0 0,2.025974 0,0 z"
       id="path17"
       style="fill:none;stroke:#000000;stroke-width:0.33620644;stroke-miterlimit:4;stroke-opacity:1;stroke-dasharray:none" />
    <path
       d="m 95.583355,-50.934708 0.08829,-0.0039 0.08762,-0.01153 0.08628,-0.01913 0.08428,-0.02657 0.08164,-0.03382 0.07839,-0.04081 0.07453,-0.04748 0.07011,-0.0538 0.06515,-0.0597 0.0597,-0.06515 0.0538,-0.07011 0.04748,-0.07453 0.0408,-0.07839 0.03382,-0.08165 0.02657,-0.08428 0.01913,-0.08628 0.01154,-0.08762 0.0039,-0.08829 -0.0039,-0.08829 -0.01154,-0.08762 -0.01913,-0.08628 -0.02657,-0.08428 -0.03382,-0.08165 -0.0408,-0.07839 -0.04748,-0.07453 -0.0538,-0.07011 -0.0597,-0.06515 -0.06515,-0.0597 -0.07011,-0.0538 -0.07453,-0.04748 -0.07839,-0.0408 -0.08164,-0.03382 -0.08428,-0.02657 -0.08628,-0.01913 -0.08762,-0.01154 -0.08829,-0.0039 0,2.025974 z"
       id="path19"
       style="fill:none;stroke:#000000;stroke-width:0.33620644;stroke-miterlimit:4;stroke-opacity:1;stroke-dasharray:none" />
    <path
       d="m 101.60934,-50.934708 -0.0883,-0.0039 -0.0876,-0.01153 -0.0863,-0.01913 -0.0843,-0.02657 -0.0816,-0.03382 -0.0784,-0.04081 -0.0745,-0.04748 -0.0701,-0.0538 -0.0651,-0.0597 -0.0597,-0.06515 -0.0538,-0.07011 -0.0475,-0.07453 -0.0408,-0.07839 -0.0338,-0.08165 -0.0266,-0.08428 -0.0191,-0.08628 -0.0115,-0.08762 -0.004,-0.08829 0.004,-0.08829 0.0115,-0.08762 0.0191,-0.08628 0.0266,-0.08428 0.0338,-0.08165 0.0408,-0.07839 0.0475,-0.07453 0.0538,-0.07011 0.0597,-0.06515 0.0651,-0.0597 0.0701,-0.0538 0.0745,-0.04748 0.0784,-0.0408 0.0816,-0.03382 0.0843,-0.02657 0.0863,-0.01913 0.0876,-0.01154 0.0883,-0.0039 0,0 0,2.025974 0,0 z"
       id="path21"
       style="fill:none;stroke:#000000;stroke-width:0.33620644;stroke-miterlimit:4;stroke-opacity:1;stroke-dasharray:none" />
    <path
       d="m 101.60934,-50.934708 -0.0883,-0.0039 -0.0876,-0.01153 -0.0863,-0.01913 -0.0843,-0.02657 -0.0816,-0.03382 -0.0784,-0.04081 -0.0745,-0.04748 -0.0701,-0.0538 -0.0651,-0.0597 -0.0597,-0.06515 -0.0538,-0.07011 -0.0475,-0.07453 -0.0408,-0.07839 -0.0338,-0.08165 -0.0266,-0.08428 -0.0191,-0.08628 -0.0115,-0.08762 -0.004,-0.08829 0.004,-0.08829 0.0115,-0.08762 0.0191,-0.08628 0.0266,-0.08428 0.0338,-0.08165 0.0408,-0.07839 0.0475,-0.07453 0.0538,-0.07011 0.0597,-0.06515 0.0651,-0.0597 0.0701,-0.0538 0.0745,-0.04748 0.0784,-0.0408 0.0816,-0.03382 0.0843,-0.02657 0.0863,-0.01913 0.0876,-0.01154 0.0883,-0.0039 0,2.025974 z"
       id="path23"
       style="fill:none;stroke:#000000;stroke-width:0.33620644;stroke-miterlimit:4;stroke-opacity:1;stroke-dasharray:none" />
  </g>
</svg>
