<?xml version="1.0" encoding="UTF-8" standalone="no"?>
<!-- Created with Inkscape (http://www.inkscape.org/) -->

<svg
   xmlns:dc="http://purl.org/dc/elements/1.1/"
   xmlns:cc="http://creativecommons.org/ns#"
   xmlns:rdf="http://www.w3.org/1999/02/22-rdf-syntax-ns#"
   xmlns:svg="http://www.w3.org/2000/svg"
   xmlns="http://www.w3.org/2000/svg"
   version="1.1"
   width="100%"
   height="100%"
   viewBox="84.018056 -56.866657 8 8"
   id="svg3869">
  <metadata
     id="metadata3896">
    <rdf:RDF>
      <cc:Work
         rdf:about="">
        <dc:format>image/svg+xml</dc:format>
        <dc:type
           rdf:resource="http://purl.org/dc/dcmitype/StillImage" />
        <dc:title></dc:title>
      </cc:Work>
    </rdf:RDF>
  </metadata>
  <defs
     id="defs3894" />
  <g
     transform="matrix(1,0,0,-1,0.911688,-106.49593)"
     id="g3871"
     style="fill:none;stroke:#000000;stroke-width:0.30000001;stroke-miterlimit:4;stroke-dasharray:none">
    <g
       id="BWA7110"
       style="stroke-width:0.30000001;stroke-miterlimit:4;stroke-dasharray:none">
      <path
         d="m 88.520582,-53.377119 0.117875,-0.128638 0.106215,-0.138423 0.09375,-0.147153 0.08056,-0.154763 0.06677,-0.161196 0.05247,-0.166402 0.03776,-0.170342 0.02277,-0.172985 0.0076,-0.174312 -0.0076,-0.174311 -0.02277,-0.172985 -0.03776,-0.170342 -0.05247,-0.166402 -0.06677,-0.161196 -0.08056,-0.154764 -0.09375,-0.147152 -0.106215,-0.138423 -0.117875,-0.128638 -0.128639,-0.117875 -0.138422,-0.106216 -0.147153,-0.09375 -0.154763,-0.08057 -0.161197,-0.06677 -0.166402,-0.05247 -0.170342,-0.03776 -0.172984,-0.02277 -0.174312,-0.0076 -0.174311,0.0076 -0.172985,0.02277 -0.170342,0.03776 -0.166402,0.05247 -0.161196,0.06677 -0.154764,0.08057 -0.147153,0.09375 -0.138422,0.106216 -0.128638,0.117875 -0.117876,0.128638 -0.106215,0.138423 -0.09375,0.147152 -0.08056,0.154764 -0.06677,0.161196 -0.05247,0.166402 -0.03776,0.170342 -0.02277,0.172985 -0.0076,0.174311 0.0076,0.174312 0.02277,0.172985 0.03776,0.170342 0.05247,0.166402 0.06677,0.161196 0.08056,0.154763 0.09375,0.147153 0.106215,0.138423 0.117876,0.128638 0.128638,0.117875 0.138422,0.106216 0.147153,0.09375 0.154764,0.08057 0.161196,0.06677 0.166402,0.05247 0.170342,0.03776 0.172985,0.02277 0.174311,0.0076 0.174312,-0.0076 0.172984,-0.02277 0.170342,-0.03776 0.166402,-0.05247 0.161197,-0.06677 0.154763,-0.08057 0.147153,-0.09375 0.138422,-0.106216 0.128639,-0.117875 z"
         id="path3874"
         fill="param(fill) #D3D3D3" stroke="param(outline) #000" stroke-width="param(outline-width) 1" />
      <path
         d="m 89.106368,-54.791333 -0.0076,0.174312 -0.02277,0.172985 -0.03776,0.170342 -0.05247,0.166402 -0.06677,0.161196 -0.08056,0.154763 -0.09375,0.147153 -0.106215,0.138423 -0.117875,0.128638 -0.128639,0.117875 -0.138422,0.106215 -0.147153,0.09375 -0.154763,0.08057 -0.161197,0.06677 -0.166402,0.05247 -0.170342,0.03776 -0.172984,0.02277 -0.174312,0.0076 -0.174311,-0.0076 -0.172985,-0.02277 -0.170342,-0.03776 -0.166402,-0.05247 -0.161196,-0.06677 -0.154764,-0.08057 -0.147153,-0.09375 -0.138422,-0.106215 -0.128638,-0.117875 -0.117876,-0.128638 -0.106215,-0.138423 -0.09375,-0.147153 -0.08056,-0.154763 -0.06677,-0.161196 -0.05247,-0.166402 -0.03776,-0.170342 -0.02277,-0.172985 -0.0076,-0.174312 0.0076,-0.174311 0.02277,-0.172985 0.03776,-0.170342 0.05247,-0.166402 0.06677,-0.161196 0.08056,-0.154764 0.09375,-0.147152 0.106215,-0.138423 0.117876,-0.128638 0.128638,-0.117875 0.138422,-0.106216 0.147153,-0.09375 0.154764,-0.08057 0.161196,-0.06677 0.166402,-0.05247 0.170342,-0.03776 0.172985,-0.02277 0.174311,-0.0076 0.174312,0.0076 0.172984,0.02277 0.170342,0.03776 0.166402,0.05247 0.161197,0.06677 0.154763,0.08057 0.147153,0.09375 0.138422,0.106216 0.128639,0.117875 0.117875,0.128638 0.106215,0.138423 0.09375,0.147152 0.08056,0.154764 0.06677,0.161196 0.05247,0.166402 0.03776,0.170342 0.02277,0.172985 0.0076,0.174311 z"
         id="path3876"
         fill="param(fill) #D3D3D3" stroke="param(outline) #000" stroke-width="param(outline-width) 1" />
      <path
         d="m 88.119355,-51.480248 -0.0039,0.08829 -0.01153,0.08762 -0.01913,0.08628 -0.02657,0.08428 -0.03382,0.08164 -0.0408,0.07839 -0.04748,0.07453 -0.0538,0.07011 -0.0597,0.06515 -0.06515,0.0597 -0.07011,0.0538 -0.07453,0.04748 -0.07839,0.04081 -0.08164,0.03382 -0.08428,0.02657 -0.08628,0.01913 -0.08761,0.01153 -0.08829,0.0039 -0.08829,-0.0039 -0.08762,-0.01153 -0.08628,-0.01913 -0.08428,-0.02657 -0.08164,-0.03382 -0.07839,-0.04081 -0.07453,-0.04748 -0.07011,-0.0538 -0.06516,-0.0597 -0.0597,-0.06515 -0.0538,-0.07011 -0.04748,-0.07453 -0.04081,-0.07839 -0.03382,-0.08164 -0.02657,-0.08428 -0.01913,-0.08628 -0.01154,-0.08762 -0.0039,-0.08829 0.0039,-0.08829 0.01154,-0.08762 0.01913,-0.08628 0.02657,-0.08428 0.03382,-0.08165 0.04081,-0.07839 0.04748,-0.07453 0.0538,-0.07011 0.0597,-0.06515 0.06516,-0.0597 0.07011,-0.0538 0.07453,-0.04748 0.07839,-0.0408 0.08164,-0.03382 0.08428,-0.02657 0.08628,-0.01913 0.08762,-0.01154 0.08829,-0.0039 0.08829,0.0039 0.08761,0.01154 0.08628,0.01913 0.08428,0.02657 0.08164,0.03382 0.07839,0.0408 0.07453,0.04748 0.07011,0.0538 0.06515,0.0597 0.0597,0.06515 0.0538,0.07011 0.04748,0.07453 0.0408,0.07839 0.03382,0.08165 0.02657,0.08428 0.01913,0.08628 0.01153,0.08762 0.0039,0.08829 z"
         id="path3878"
         fill="param(fill) #D3D3D3" stroke="param(outline) #000" stroke-width="param(outline-width) 1" />
      <path
         d="m 87.106368,-50.467261 0.08829,-0.0039 0.08761,-0.01153 0.08628,-0.01913 0.08428,-0.02657 0.08164,-0.03382 0.07839,-0.04081 0.07453,-0.04748 0.07011,-0.0538 0.06515,-0.0597 0.0597,-0.06515 0.0538,-0.07011 0.04748,-0.07453 0.0408,-0.07839 0.03382,-0.08164 0.02657,-0.08428 0.01913,-0.08628 0.01153,-0.08762 0.0039,-0.08829 -0.0039,-0.08829 -0.01153,-0.08762 -0.01913,-0.08628 -0.02657,-0.08428 -0.03382,-0.08165 -0.0408,-0.07839 -0.04748,-0.07453 -0.0538,-0.07011 -0.0597,-0.06515 -0.06515,-0.0597 -0.07011,-0.0538 -0.07453,-0.04748 -0.07839,-0.0408 -0.08164,-0.03382 -0.08428,-0.02657 -0.08628,-0.01913 -0.08761,-0.01154 -0.08829,-0.0039 -0.08829,0.0039 -0.08762,0.01154 -0.08628,0.01913 -0.08428,0.02657 -0.08164,0.03382 -0.07839,0.0408 -0.07453,0.04748 -0.07011,0.0538 -0.06516,0.0597 -0.0597,0.06515 -0.0538,0.07011 -0.04748,0.07453 -0.04081,0.07839 -0.03382,0.08165 -0.02657,0.08428 -0.01913,0.08628 -0.01154,0.08762 -0.0039,0.08829 0.0039,0.08829 0.01154,0.08762 0.01913,0.08628 0.02657,0.08428 0.03382,0.08164 0.04081,0.07839 0.04748,0.07453 0.0538,0.07011 0.0597,0.06515 0.06516,0.0597 0.07011,0.0538 0.07453,0.04748 0.07839,0.04081 0.08164,0.03382 0.08428,0.02657 0.08628,0.01913 0.08762,0.01153 0.08829,0.0039 z"
         id="path3880"
         fill="param(fill) #D3D3D3" stroke="param(outline) #000" stroke-width="param(outline-width) 1" />
      <path
         d="m 87.106368,-52.493235 0,-2.298098"
         id="path3882"
         fill="param(fill) #D3D3D3" stroke="param(outline) #000" stroke-width="param(outline-width) 1" />
      <path
         d="m 84.093381,-55.80432 0.08829,0.0039 0.08761,0.01154 0.08628,0.01913 0.08428,0.02657 0.08165,0.03382 0.07839,0.04081 0.07453,0.04748 0.07011,0.0538 0.06515,0.0597 0.0597,0.06516 0.0538,0.07011 0.04748,0.07453 0.04081,0.07839 0.03382,0.08164 0.02657,0.08428 0.01913,0.08628 0.01153,0.08762 0.0039,0.08829 -0.0039,0.08829 -0.01153,0.08762 -0.01913,0.08628 -0.02657,0.08428 -0.03382,0.08165 -0.04081,0.07839 -0.04748,0.07453 -0.0538,0.07011 -0.0597,0.06515 -0.06515,0.0597 -0.07011,0.0538 -0.07453,0.04748 -0.07839,0.0408 -0.08165,0.03382 -0.08428,0.02657 -0.08628,0.01913 -0.08761,0.01153 -0.08829,0.0039 0,0 0,-2.025974 0,0 z"
         id="path3884"
         fill="param(fill) #D3D3D3" stroke="param(outline) #000" stroke-width="param(outline-width) 1" />
      <path
         d="m 84.093381,-55.80432 0.08829,0.0039 0.08761,0.01154 0.08628,0.01913 0.08428,0.02657 0.08165,0.03382 0.07839,0.04081 0.07453,0.04748 0.07011,0.0538 0.06515,0.0597 0.0597,0.06516 0.0538,0.07011 0.04748,0.07453 0.04081,0.07839 0.03382,0.08164 0.02657,0.08428 0.01913,0.08628 0.01153,0.08762 0.0039,0.08829 -0.0039,0.08829 -0.01153,0.08762 -0.01913,0.08628 -0.02657,0.08428 -0.03382,0.08165 -0.04081,0.07839 -0.04748,0.07453 -0.0538,0.07011 -0.0597,0.06515 -0.06515,0.0597 -0.07011,0.0538 -0.07453,0.04748 -0.07839,0.0408 -0.08165,0.03382 -0.08428,0.02657 -0.08628,0.01913 -0.08761,0.01153 -0.08829,0.0039 0,-2.025974 z"
         id="path3886"
         fill="param(fill) #D3D3D3" stroke="param(outline) #000" stroke-width="param(outline-width) 1" />
      <path
         d="m 90.119355,-55.80432 -0.08829,0.0039 -0.08762,0.01154 -0.08628,0.01913 -0.08428,0.02657 -0.08164,0.03382 -0.07839,0.04081 -0.07453,0.04748 -0.07011,0.0538 -0.06516,0.0597 -0.0597,0.06516 -0.0538,0.07011 -0.04748,0.07453 -0.04081,0.07839 -0.03382,0.08164 -0.02657,0.08428 -0.01913,0.08628 -0.01153,0.08762 -0.0039,0.08829 0.0039,0.08829 0.01153,0.08762 0.01913,0.08628 0.02657,0.08428 0.03382,0.08165 0.04081,0.07839 0.04748,0.07453 0.0538,0.07011 0.0597,0.06515 0.06516,0.0597 0.07011,0.0538 0.07453,0.04748 0.07839,0.0408 0.08164,0.03382 0.08428,0.02657 0.08628,0.01913 0.08762,0.01153 0.08829,0.0039 0,0 0,-2.025974 0,0 z"
         id="path3888"
         fill="param(fill) #D3D3D3" stroke="param(outline) #000" stroke-width="param(outline-width) 1" />
      <path
         d="m 90.119355,-55.80432 -0.08829,0.0039 -0.08762,0.01154 -0.08628,0.01913 -0.08428,0.02657 -0.08164,0.03382 -0.07839,0.04081 -0.07453,0.04748 -0.07011,0.0538 -0.06516,0.0597 -0.0597,0.06516 -0.0538,0.07011 -0.04748,0.07453 -0.04081,0.07839 -0.03382,0.08164 -0.02657,0.08428 -0.01913,0.08628 -0.01153,0.08762 -0.0039,0.08829 0.0039,0.08829 0.01153,0.08762 0.01913,0.08628 0.02657,0.08428 0.03382,0.08165 0.04081,0.07839 0.04748,0.07453 0.0538,0.07011 0.0597,0.06515 0.06516,0.0597 0.07011,0.0538 0.07453,0.04748 0.07839,0.0408 0.08164,0.03382 0.08428,0.02657 0.08628,0.01913 0.08762,0.01153 0.08829,0.0039 0,-2.025974 z"
         id="path3890"
         fill="param(fill) #D3D3D3" stroke="param(outline) #000" stroke-width="param(outline-width) 1" />
    </g>
  </g>
</svg>
